{"glyphs":{"0":{"ha":924,"x_min":0,"x_max":0,"o":"m 463 -22 b 83 486 226 -22 83 181 b 463 994 83 792 226 994 b 840 486 699 994 840 792 b 463 -22 840 181 699 -22 m 192 486 b 463 79 192 278 268 79 b 732 486 657 79 732 278 b 463 893 732 694 657 893 b 192 486 268 893 192 694 "},"1":{"ha":761,"x_min":0,"x_max":0,"o":"m 111 101 l 361 101 l 361 701 b 151 593 336 640 263 593 l 111 593 l 111 694 l 151 694 b 361 972 290 694 361 778 l 469 972 l 469 101 l 719 101 l 719 0 l 111 0 "},"2":{"ha":835,"x_min":0,"x_max":0,"o":"m 85 101 b 621 694 219 199 621 444 b 406 893 621 819 517 893 b 185 674 294 893 185 826 l 83 688 b 406 994 83 868 211 994 b 729 694 600 994 729 861 b 249 101 729 408 379 183 l 751 101 l 751 0 l 85 0 l 85 101 "},"3":{"ha":874,"x_min":0,"x_max":0,"o":"m 438 -22 b 85 269 229 -22 72 101 l 196 283 b 438 82 196 136 326 82 b 679 269 549 82 679 144 b 438 453 679 394 549 453 l 326 453 l 326 558 l 438 558 b 646 728 563 558 646 631 b 438 893 646 825 563 893 b 229 735 313 893 233 829 l 121 749 b 438 994 125 874 229 994 b 754 728 646 994 754 867 b 619 508 754 622 688 542 b 790 269 714 481 790 401 b 438 -22 790 103 646 -22 "},"4":{"ha":964,"x_min":0,"x_max":0,"o":"m 56 369 b 344 972 244 488 344 750 l 460 972 b 201 369 460 776 361 481 l 647 369 l 647 972 l 756 972 l 756 369 l 881 369 l 881 268 l 756 268 l 756 0 l 647 0 l 647 268 l 56 268 l 56 369 "},"5":{"ha":844,"x_min":0,"x_max":0,"o":"m 421 -22 b 83 269 226 -22 83 89 l 192 283 b 421 78 192 172 282 78 b 653 324 574 78 653 199 b 421 568 653 449 574 568 b 207 433 268 568 213 446 l 99 433 l 140 972 l 688 972 l 688 871 l 240 871 l 218 571 b 421 664 254 618 333 664 b 761 324 615 664 761 532 b 421 -22 761 115 615 -22 "},"6":{"ha":876,"x_min":0,"x_max":0,"o":"m 449 -22 b 83 490 157 -22 83 268 b 449 994 83 835 240 994 b 793 735 615 994 738 921 l 681 721 b 449 893 643 819 574 893 b 181 461 260 893 188 739 b 449 646 217 572 314 646 b 783 313 629 646 783 521 b 449 -22 783 118 629 -22 m 218 313 b 449 79 218 174 307 79 b 675 313 588 79 675 174 b 449 544 675 451 588 544 b 218 313 310 544 218 451 "},"7":{"ha":764,"x_min":0,"x_max":0,"o":"m 251 0 b 561 871 251 450 406 733 l 42 871 l 42 972 l 708 972 l 708 871 b 367 0 542 760 367 483 l 251 0 "},"8":{"ha":858,"x_min":0,"x_max":0,"o":"m 429 -22 b 69 269 249 -22 69 89 b 260 508 69 378 150 482 b 106 728 174 543 106 644 b 429 994 106 875 221 994 b 753 728 638 994 753 875 b 597 508 753 644 683 542 b 789 269 708 481 789 378 b 429 -22 789 89 610 -22 m 181 269 b 429 82 181 144 304 82 b 678 269 554 82 678 144 b 429 456 678 394 554 456 b 181 269 304 456 181 394 m 214 728 b 429 557 214 631 304 557 b 644 728 554 557 644 631 b 429 893 644 825 554 893 b 214 728 304 893 214 825 "},"9":{"ha":876,"x_min":0,"x_max":0,"o":"m 428 -22 b 83 238 261 -22 139 51 l 196 251 b 428 79 233 153 303 79 b 696 511 617 79 689 233 b 428 326 660 400 563 326 b 93 660 247 326 93 451 b 428 994 93 854 247 994 b 793 482 719 994 793 704 b 428 -22 793 138 636 -22 m 201 660 b 428 428 201 521 289 428 b 658 660 567 428 658 521 b 428 893 658 799 569 893 b 201 660 289 893 201 799 "}," ":{"ha":347,"x_min":0,"x_max":0,"o":""},"A":{"ha":917,"x_min":0,"x_max":0,"o":"m 393 972 l 524 972 l 861 0 l 751 0 l 643 314 l 274 314 l 165 0 l 56 0 m 607 415 l 458 844 l 310 415 "},"Á":{"ha":917,"x_min":0,"x_max":0,"o":"m 393 972 l 524 972 l 861 0 l 751 0 l 643 314 l 274 314 l 165 0 l 56 0 m 607 415 l 458 844 l 310 415 m 519 1292 l 649 1292 l 524 1083 l 436 1083 "},"Ă":{"ha":917,"x_min":0,"x_max":0,"o":"m 393 972 l 524 972 l 861 0 l 751 0 l 643 314 l 274 314 l 165 0 l 56 0 m 339 1292 b 458 1172 340 1225 393 1172 b 578 1292 524 1172 576 1225 l 667 1292 b 458 1083 667 1175 574 1083 b 250 1292 342 1083 250 1175 m 607 415 l 458 844 l 310 415 "},"Â":{"ha":917,"x_min":0,"x_max":0,"o":"m 393 972 l 524 972 l 861 0 l 751 0 l 643 314 l 274 314 l 165 0 l 56 0 m 379 1292 l 538 1292 l 635 1083 l 547 1083 l 458 1236 l 369 1083 l 282 1083 m 607 415 l 458 844 l 310 415 "},"Ä":{"ha":917,"x_min":0,"x_max":0,"o":"m 393 972 l 524 972 l 861 0 l 751 0 l 643 314 l 274 314 l 165 0 l 56 0 m 286 1208 l 411 1208 l 411 1083 l 286 1083 m 607 415 l 458 844 l 310 415 m 506 1208 l 631 1208 l 631 1083 l 506 1083 "},"À":{"ha":917,"x_min":0,"x_max":0,"o":"m 393 972 l 524 972 l 861 0 l 751 0 l 643 314 l 274 314 l 165 0 l 56 0 m 413 1292 l 496 1083 l 408 1083 l 283 1292 m 607 415 l 458 844 l 310 415 "},"Ā":{"ha":917,"x_min":0,"x_max":0,"o":"m 393 972 l 524 972 l 861 0 l 751 0 l 643 314 l 274 314 l 165 0 l 56 0 m 263 1171 l 654 1171 l 654 1083 l 263 1083 m 607 415 l 458 844 l 310 415 "},"Ą":{"ha":925,"x_min":0,"x_max":0,"o":"m 393 972 l 524 972 l 861 0 b 782 -107 811 -28 782 -68 b 825 -157 782 -137 804 -157 b 874 -107 846 -157 874 -149 l 953 -121 b 815 -247 953 -204 892 -247 b 692 -124 735 -247 692 -190 b 774 0 692 -71 721 -28 l 751 0 l 643 314 l 274 314 l 165 0 l 56 0 m 607 415 l 458 844 l 310 415 "},"Å":{"ha":917,"x_min":0,"x_max":0,"o":"m 393 972 l 524 972 l 861 0 l 751 0 l 643 314 l 274 314 l 165 0 l 56 0 m 607 415 l 458 844 l 310 415 m 313 1188 b 458 1333 313 1267 379 1333 b 604 1188 538 1333 604 1267 b 458 1042 604 1108 538 1042 b 313 1188 379 1042 313 1108 m 403 1188 b 458 1132 403 1156 426 1132 b 514 1188 490 1132 514 1156 b 458 1243 514 1219 490 1243 b 403 1188 426 1243 403 1219 "},"Ã":{"ha":917,"x_min":0,"x_max":0,"o":"m 393 972 l 524 972 l 861 0 l 751 0 l 643 314 l 274 314 l 165 0 l 56 0 m 235 1097 b 372 1249 235 1181 285 1249 b 531 1171 456 1249 489 1171 b 581 1249 586 1171 581 1235 l 682 1235 b 544 1083 682 1151 628 1083 b 386 1161 461 1083 428 1161 b 336 1083 340 1161 336 1097 l 235 1097 m 607 415 l 458 844 l 310 415 "},"Æ":{"ha":1201,"x_min":0,"x_max":0,"o":"m 393 972 l 1104 972 l 1104 871 l 558 871 l 668 556 l 1035 556 l 1035 454 l 703 454 l 826 101 l 1104 101 l 1104 0 l 751 0 l 643 314 l 274 314 l 165 0 l 56 0 m 607 415 l 458 844 l 310 415 "},"Ǽ":{"ha":1188,"x_min":0,"x_max":0,"o":"m 393 972 l 1104 972 l 1104 871 l 558 871 l 668 556 l 1035 556 l 1035 454 l 703 454 l 826 101 l 1104 101 l 1104 0 l 751 0 l 643 314 l 274 314 l 165 0 l 56 0 m 607 415 l 458 844 l 310 415 m 506 1292 l 635 1292 l 510 1083 l 422 1083 "},"B":{"ha":835,"x_min":0,"x_max":0,"o":"m 125 972 l 375 972 b 696 708 486 972 696 944 b 578 504 696 628 658 542 b 751 272 685 474 751 390 b 431 0 751 22 514 0 l 125 0 m 431 101 b 643 272 556 101 643 147 b 431 443 643 397 556 443 l 226 443 l 226 101 m 375 544 b 588 708 514 544 588 597 b 375 871 588 819 514 871 l 226 871 l 226 544 "},"C":{"ha":1051,"x_min":0,"x_max":0,"o":"m 531 -22 b 83 486 308 -22 83 139 b 531 994 83 833 308 994 b 954 608 725 994 910 876 l 843 593 b 531 892 808 758 711 892 b 192 486 308 892 192 708 b 531 79 192 264 308 79 b 844 371 711 79 811 199 l 954 357 b 531 -22 911 89 725 -22 "},"Ć":{"ha":1051,"x_min":0,"x_max":0,"o":"m 531 -22 b 83 486 308 -22 83 139 b 531 994 83 833 308 994 b 954 608 725 994 910 876 l 843 593 b 531 892 808 758 711 892 b 192 486 308 892 192 708 b 531 79 192 264 308 79 b 844 371 711 79 811 199 l 954 357 b 531 -22 911 89 725 -22 m 565 1292 l 694 1292 l 569 1083 l 482 1083 "},"Č":{"ha":1051,"x_min":0,"x_max":0,"o":"m 531 -22 b 83 486 308 -22 83 139 b 531 994 83 833 308 994 b 954 608 725 994 910 876 l 843 593 b 531 892 808 758 711 892 b 192 486 308 892 192 708 b 531 79 192 264 308 79 b 844 371 711 79 811 199 l 954 357 b 531 -22 911 89 725 -22 m 431 1292 l 519 1139 l 608 1292 l 696 1292 l 599 1083 l 440 1083 l 343 1292 "},"Ç":{"ha":1051,"x_min":0,"x_max":0,"o":"m 547 -300 b 424 -201 485 -300 431 -262 l 503 -187 b 547 -224 507 -210 524 -224 b 594 -176 575 -224 594 -204 b 547 -131 594 -149 575 -131 b 507 -154 528 -131 514 -139 l 436 -122 l 472 -18 b 83 486 271 8 83 169 b 531 994 83 833 308 994 b 954 608 725 994 910 876 l 843 593 b 531 892 808 758 711 892 b 192 486 308 892 192 708 b 531 79 192 264 308 79 b 844 371 711 79 811 199 l 954 357 b 553 -22 913 100 739 -14 l 542 -53 l 547 -53 b 671 -176 614 -53 671 -110 b 547 -300 671 -243 614 -300 "},"Ĉ":{"ha":1051,"x_min":0,"x_max":0,"o":"m 531 -22 b 83 486 308 -22 83 139 b 531 994 83 833 308 994 b 954 608 725 994 910 876 l 843 593 b 531 892 808 758 711 892 b 192 486 308 892 192 708 b 531 79 192 264 308 79 b 844 371 711 79 811 199 l 954 357 b 531 -22 911 89 725 -22 m 440 1292 l 599 1292 l 696 1083 l 608 1083 l 519 1236 l 431 1083 l 343 1083 "},"Ċ":{"ha":1051,"x_min":0,"x_max":0,"o":"m 454 1214 l 585 1214 l 585 1083 l 454 1083 m 83 486 b 531 994 83 833 308 994 b 954 608 725 994 910 876 l 843 593 b 531 892 808 758 711 892 b 192 486 308 892 192 708 b 531 79 192 264 308 79 b 844 371 711 79 811 199 l 954 357 b 531 -22 911 89 725 -22 b 83 486 308 -22 83 139 "},"D":{"ha":928,"x_min":0,"x_max":0,"o":"m 125 972 l 417 972 b 844 486 583 972 844 917 b 417 0 844 56 583 0 l 125 0 m 403 101 b 736 486 667 101 736 222 b 403 871 736 750 667 871 l 233 871 l 233 101 "},"Ð":{"ha":928,"x_min":0,"x_max":0,"o":"m -14 538 l 125 538 l 125 972 l 417 972 b 844 486 583 972 844 917 b 417 0 844 56 583 0 l 125 0 l 125 436 l -14 436 m 403 101 b 736 486 667 101 736 222 b 403 871 736 750 667 871 l 233 871 l 233 538 l 386 538 l 386 436 l 233 436 l 233 101 "},"Ď":{"ha":928,"x_min":0,"x_max":0,"o":"m 125 972 l 417 972 b 844 486 583 972 844 917 b 417 0 844 56 583 0 l 125 0 m 403 101 b 736 486 667 101 736 222 b 403 871 736 750 667 871 l 233 871 l 233 101 m 340 1292 l 429 1139 l 518 1292 l 606 1292 l 508 1083 l 350 1083 l 253 1292 "},"Đ":{"ha":928,"x_min":0,"x_max":0,"o":"m -14 538 l 125 538 l 125 972 l 417 972 b 844 486 583 972 844 917 b 417 0 844 56 583 0 l 125 0 l 125 436 l -14 436 m 403 101 b 736 486 667 101 736 222 b 403 871 736 750 667 871 l 233 871 l 233 538 l 386 538 l 386 436 l 233 436 l 233 101 "},"E":{"ha":789,"x_min":0,"x_max":0,"o":"m 125 972 l 692 972 l 692 871 l 233 871 l 233 556 l 622 556 l 622 454 l 233 454 l 233 101 l 692 101 l 692 0 l 125 0 "},"É":{"ha":789,"x_min":0,"x_max":0,"o":"m 125 972 l 692 972 l 692 871 l 233 871 l 233 556 l 622 556 l 622 454 l 233 454 l 233 101 l 692 101 l 692 0 l 125 0 m 456 1264 l 585 1264 l 460 1056 l 372 1056 "},"Ĕ":{"ha":789,"x_min":0,"x_max":0,"o":"m 125 972 l 692 972 l 692 871 l 233 871 l 233 556 l 622 556 l 622 454 l 233 454 l 233 101 l 692 101 l 692 0 l 125 0 m 289 1264 b 408 1144 290 1197 343 1144 b 528 1264 474 1144 526 1197 l 617 1264 b 408 1056 617 1147 524 1056 b 200 1264 292 1056 200 1147 "},"Ě":{"ha":789,"x_min":0,"x_max":0,"o":"m 125 972 l 692 972 l 692 871 l 233 871 l 233 556 l 622 556 l 622 454 l 233 454 l 233 101 l 692 101 l 692 0 l 125 0 m 319 1303 l 408 1150 l 497 1303 l 585 1303 l 488 1094 l 329 1094 l 232 1303 "},"Ê":{"ha":789,"x_min":0,"x_max":0,"o":"m 125 972 l 692 972 l 692 871 l 233 871 l 233 556 l 622 556 l 622 454 l 233 454 l 233 101 l 692 101 l 692 0 l 125 0 m 329 1303 l 488 1303 l 585 1094 l 497 1094 l 408 1247 l 319 1094 l 232 1094 "},"Ë":{"ha":789,"x_min":0,"x_max":0,"o":"m 456 1208 l 581 1208 l 581 1083 l 456 1083 m 125 972 l 692 972 l 692 871 l 233 871 l 233 556 l 622 556 l 622 454 l 233 454 l 233 101 l 692 101 l 692 0 l 125 0 m 236 1208 l 361 1208 l 361 1083 l 236 1083 "},"Ė":{"ha":789,"x_min":0,"x_max":0,"o":"m 125 972 l 692 972 l 692 871 l 233 871 l 233 556 l 622 556 l 622 454 l 233 454 l 233 101 l 692 101 l 692 0 l 125 0 m 343 1186 l 474 1186 l 474 1056 l 343 1056 "},"È":{"ha":789,"x_min":0,"x_max":0,"o":"m 125 972 l 692 972 l 692 871 l 233 871 l 233 556 l 622 556 l 622 454 l 233 454 l 233 101 l 692 101 l 692 0 l 125 0 m 363 1264 l 446 1056 l 358 1056 l 233 1264 "},"Ē":{"ha":789,"x_min":0,"x_max":0,"o":"m 125 972 l 692 972 l 692 871 l 233 871 l 233 556 l 622 556 l 622 454 l 233 454 l 233 101 l 692 101 l 692 0 l 125 0 m 213 1143 l 604 1143 l 604 1056 l 213 1056 "},"Ę":{"ha":874,"x_min":0,"x_max":0,"o":"m 125 972 l 692 972 l 692 871 l 233 871 l 233 556 l 622 556 l 622 454 l 233 454 l 233 101 l 692 101 l 692 0 b 613 -107 642 -28 613 -68 b 656 -157 613 -137 635 -157 b 704 -107 676 -157 704 -149 l 783 -121 b 646 -247 783 -204 722 -247 b 522 -124 565 -247 522 -190 b 604 0 522 -71 551 -28 l 125 0 "},"Ẽ":{"ha":789,"x_min":0,"x_max":0,"o":"m 125 972 l 692 972 l 692 871 l 233 871 l 233 556 l 622 556 l 622 454 l 233 454 l 233 101 l 692 101 l 692 0 l 125 0 m 185 1069 b 322 1221 185 1153 235 1221 b 481 1143 406 1221 439 1143 b 531 1221 536 1143 531 1207 l 632 1207 b 494 1056 632 1124 578 1056 b 336 1133 411 1056 378 1133 b 286 1056 290 1133 286 1069 l 185 1069 "},"F":{"ha":789,"x_min":0,"x_max":0,"o":"m 125 972 l 692 972 l 692 871 l 233 871 l 233 556 l 622 556 l 622 454 l 233 454 l 233 0 l 125 0 "},"G":{"ha":1097,"x_min":0,"x_max":0,"o":"m 531 -22 b 83 486 308 -22 83 139 b 531 993 83 833 308 993 b 972 599 733 993 940 867 l 864 585 b 531 892 840 736 725 892 b 192 486 308 892 192 708 b 531 79 192 264 308 79 b 861 363 719 79 833 207 l 524 363 l 524 464 l 972 464 l 972 0 l 871 0 l 894 257 b 531 -22 842 57 672 -22 "},"Ğ":{"ha":1097,"x_min":0,"x_max":0,"o":"m 531 -22 b 83 486 308 -22 83 139 b 531 993 83 833 308 993 b 972 599 733 993 940 867 l 864 585 b 531 892 840 736 725 892 b 192 486 308 892 192 708 b 531 79 192 264 308 79 b 861 363 719 79 833 207 l 524 363 l 524 464 l 972 464 l 972 0 l 871 0 l 894 257 b 531 -22 842 57 672 -22 m 408 1292 b 528 1172 410 1225 463 1172 b 647 1292 593 1172 646 1225 l 736 1292 b 528 1083 736 1175 643 1083 b 319 1292 411 1083 319 1175 "},"Ĝ":{"ha":1097,"x_min":0,"x_max":0,"o":"m 531 -22 b 83 486 308 -22 83 139 b 531 993 83 833 308 993 b 972 599 733 993 940 867 l 864 585 b 531 892 840 736 725 892 b 192 486 308 892 192 708 b 531 79 192 264 308 79 b 861 363 719 79 833 207 l 524 363 l 524 464 l 972 464 l 972 0 l 871 0 l 894 257 b 531 -22 842 57 672 -22 m 449 1292 l 607 1292 l 704 1083 l 617 1083 l 528 1236 l 439 1083 l 351 1083 "},"Ģ":{"ha":1097,"x_min":0,"x_max":0,"o":"m 531 -22 b 83 486 308 -22 83 139 b 531 993 83 833 308 993 b 972 599 733 993 940 867 l 864 585 b 531 892 840 736 725 892 b 192 486 308 892 192 708 b 531 79 192 264 308 79 b 861 363 719 79 833 207 l 524 363 l 524 464 l 972 464 l 972 0 l 871 0 l 894 257 b 531 -22 842 57 672 -22 m 444 -285 b 525 -208 519 -285 525 -264 l 458 -208 l 458 -97 l 597 -97 l 597 -208 b 444 -344 597 -317 547 -344 "},"Ġ":{"ha":1097,"x_min":0,"x_max":0,"o":"m 531 -22 b 83 486 308 -22 83 139 b 531 993 83 833 308 993 b 972 599 733 993 940 867 l 864 585 b 531 892 840 736 725 892 b 192 486 308 892 192 708 b 531 79 192 264 308 79 b 861 363 719 79 833 207 l 524 363 l 524 464 l 972 464 l 972 0 l 871 0 l 894 257 b 531 -22 842 57 672 -22 m 463 1214 l 593 1214 l 593 1083 l 463 1083 "},"Ḡ":{"ha":1097,"x_min":0,"x_max":0,"o":"m 531 -22 b 83 486 308 -22 83 139 b 531 993 83 833 308 993 b 972 599 733 993 940 867 l 864 585 b 531 892 840 736 725 892 b 192 486 308 892 192 708 b 531 79 192 264 308 79 b 861 363 719 79 833 207 l 524 363 l 524 464 l 972 464 l 972 0 l 871 0 l 894 257 b 531 -22 842 57 672 -22 m 332 1171 l 724 1171 l 724 1083 l 332 1083 "},"H":{"ha":939,"x_min":0,"x_max":0,"o":"m 706 454 l 233 454 l 233 0 l 125 0 l 125 972 l 233 972 l 233 556 l 706 556 l 706 972 l 814 972 l 814 0 l 706 0 "},"Ħ":{"ha":911,"x_min":0,"x_max":0,"o":"m 14 819 l 111 819 l 111 972 l 219 972 l 219 819 l 692 819 l 692 972 l 800 972 l 800 819 l 897 819 l 897 733 l 800 733 l 800 0 l 692 0 l 692 454 l 219 454 l 219 0 l 111 0 l 111 733 l 14 733 m 692 556 l 692 733 l 219 733 l 219 556 "},"Ĥ":{"ha":939,"x_min":0,"x_max":0,"o":"m 706 454 l 233 454 l 233 0 l 125 0 l 125 972 l 233 972 l 233 556 l 706 556 l 706 972 l 814 972 l 814 0 l 706 0 m 390 1292 l 549 1292 l 646 1083 l 558 1083 l 469 1236 l 381 1083 l 293 1083 "},"I":{"ha":358,"x_min":0,"x_max":0,"o":"m 125 972 l 233 972 l 233 0 l 125 0 "},"Ĳ":{"ha":1142,"x_min":0,"x_max":0,"o":"m 125 972 l 233 972 l 233 0 l 125 0 m 536 361 b 722 79 536 167 597 79 b 908 306 847 79 908 153 l 908 972 l 1017 972 l 1017 306 b 722 -22 1017 139 958 -22 b 428 361 486 -22 428 153 "},"Í":{"ha":354,"x_min":0,"x_max":0,"o":"m 125 972 l 233 972 l 233 0 l 125 0 m 225 1292 l 354 1292 l 229 1083 l 142 1083 "},"Ĭ":{"ha":444,"x_min":0,"x_max":0,"o":"m 168 972 l 276 972 l 276 0 l 168 0 m 103 1292 b 222 1172 104 1225 157 1172 b 342 1292 288 1172 340 1225 l 431 1292 b 222 1083 431 1175 338 1083 b 14 1292 106 1083 14 1175 "},"Î":{"ha":353,"x_min":0,"x_max":0,"o":"m 122 972 l 231 972 l 231 0 l 122 0 m 97 1292 l 256 1292 l 353 1083 l 265 1083 l 176 1236 l 88 1083 l 0 1083 "},"Ï":{"ha":358,"x_min":0,"x_max":0,"o":"m 125 972 l 233 972 l 233 0 l 125 0 m 7 1208 l 132 1208 l 132 1083 l 7 1083 m 226 1208 l 351 1208 l 351 1083 l 226 1083 "},"İ":{"ha":381,"x_min":0,"x_max":0,"o":"m 136 972 l 244 972 l 244 0 l 136 0 m 125 1214 l 256 1214 l 256 1083 l 125 1083 "},"Ì":{"ha":356,"x_min":0,"x_max":0,"o":"m 122 972 l 231 972 l 231 0 l 122 0 m 129 1292 l 213 1083 l 125 1083 l 0 1292 "},"Ī":{"ha":364,"x_min":0,"x_max":0,"o":"m 128 972 l 236 972 l 236 0 l 128 0 m -14 1171 l 378 1171 l 378 1083 l -14 1083 "},"Į":{"ha":414,"x_min":0,"x_max":0,"o":"m 172 972 l 281 972 l 281 0 b 201 -107 231 -28 201 -68 b 244 -157 201 -137 224 -157 b 293 -107 265 -157 293 -149 l 372 -121 b 235 -247 372 -204 311 -247 b 111 -124 154 -247 111 -190 b 193 0 111 -71 140 -28 l 172 0 "},"Ĩ":{"ha":364,"x_min":0,"x_max":0,"o":"m 128 972 l 236 972 l 236 0 l 128 0 m -42 1097 b 96 1249 -42 1181 8 1249 b 254 1171 179 1249 213 1171 b 304 1249 310 1171 304 1235 l 406 1235 b 268 1083 406 1151 351 1083 b 110 1161 185 1083 151 1161 b 60 1083 64 1161 60 1097 l -42 1097 "},"J":{"ha":783,"x_min":0,"x_max":0,"o":"m 364 -22 b 69 361 128 -22 69 153 l 178 361 b 364 79 178 167 239 79 b 550 306 489 79 550 153 l 550 972 l 658 972 l 658 306 b 364 -22 658 139 600 -22 "},"Ĵ":{"ha":781,"x_min":0,"x_max":0,"o":"m 364 -22 b 69 361 128 -22 69 153 l 178 361 b 364 79 178 167 239 79 b 550 306 489 79 550 153 l 550 972 l 658 972 l 658 306 b 364 -22 658 139 600 -22 m 525 1292 l 683 1292 l 781 1083 l 693 1083 l 604 1236 l 515 1083 l 428 1083 "},"K":{"ha":863,"x_min":0,"x_max":0,"o":"m 125 972 l 233 972 l 233 488 l 656 972 l 781 972 l 439 578 l 821 0 l 696 0 l 369 497 l 233 339 l 233 0 l 125 0 "},"Ķ":{"ha":863,"x_min":0,"x_max":0,"o":"m 125 972 l 233 972 l 233 488 l 656 972 l 781 972 l 439 578 l 821 0 l 696 0 l 369 497 l 233 339 l 233 0 l 125 0 m 363 -285 b 443 -208 438 -285 443 -264 l 376 -208 l 376 -97 l 515 -97 l 515 -208 b 363 -344 515 -317 465 -344 "},"L":{"ha":754,"x_min":0,"x_max":0,"o":"m 125 972 l 233 972 l 233 101 l 685 101 l 685 0 l 125 0 "},"Ĺ":{"ha":754,"x_min":0,"x_max":0,"o":"m 125 972 l 233 972 l 233 101 l 685 101 l 685 0 l 125 0 m 225 1292 l 354 1292 l 229 1083 l 142 1083 "},"Ľ":{"ha":754,"x_min":0,"x_max":0,"o":"m 125 972 l 233 972 l 233 101 l 685 101 l 685 0 l 125 0 m 417 783 b 497 860 492 783 497 804 l 431 860 l 431 971 l 569 971 l 569 860 b 417 724 569 751 519 724 "},"Ļ":{"ha":754,"x_min":0,"x_max":0,"o":"m 125 972 l 233 972 l 233 101 l 685 101 l 685 0 l 125 0 m 321 -285 b 401 -208 396 -285 401 -264 l 335 -208 l 335 -97 l 474 -97 l 474 -208 b 321 -344 474 -317 424 -344 "},"Ŀ":{"ha":754,"x_min":0,"x_max":0,"o":"m 463 672 l 601 672 l 601 533 l 463 533 m 125 972 l 233 972 l 233 101 l 685 101 l 685 0 l 125 0 "},"Ł":{"ha":789,"x_min":0,"x_max":0,"o":"m 14 504 l 160 560 l 160 972 l 268 972 l 268 601 l 414 657 l 414 556 l 268 500 l 268 101 l 719 101 l 719 0 l 160 0 l 160 458 l 14 403 "},"M":{"ha":1139,"x_min":0,"x_max":0,"o":"m 125 972 l 268 972 l 569 140 l 869 972 l 1014 972 l 1014 0 l 906 0 l 906 788 l 621 0 l 518 0 l 233 788 l 233 0 l 125 0 "},"N":{"ha":1019,"x_min":0,"x_max":0,"o":"m 125 972 l 275 972 l 786 93 l 786 972 l 894 972 l 894 0 l 731 0 l 233 856 l 233 0 l 125 0 "},"Ń":{"ha":1019,"x_min":0,"x_max":0,"o":"m 125 972 l 275 972 l 786 93 l 786 972 l 894 972 l 894 0 l 731 0 l 233 856 l 233 0 l 125 0 m 557 1292 l 686 1292 l 561 1083 l 474 1083 "},"Ň":{"ha":1019,"x_min":0,"x_max":0,"o":"m 125 972 l 275 972 l 786 93 l 786 972 l 894 972 l 894 0 l 731 0 l 233 856 l 233 0 l 125 0 m 421 1292 l 510 1139 l 599 1292 l 686 1292 l 589 1083 l 431 1083 l 333 1292 "},"Ņ":{"ha":1019,"x_min":0,"x_max":0,"o":"m 125 972 l 275 972 l 786 93 l 786 972 l 894 972 l 894 0 l 731 0 l 233 856 l 233 0 l 125 0 m 426 -285 b 507 -208 501 -285 507 -264 l 440 -208 l 440 -97 l 579 -97 l 579 -208 b 426 -344 579 -317 529 -344 "},"Ñ":{"ha":1019,"x_min":0,"x_max":0,"o":"m 125 972 l 275 972 l 786 93 l 786 972 l 894 972 l 894 0 l 731 0 l 233 856 l 233 0 l 125 0 m 286 1097 b 424 1249 286 1181 336 1249 b 582 1171 507 1249 540 1171 b 632 1249 638 1171 632 1235 l 733 1235 b 596 1083 733 1151 679 1083 b 438 1161 513 1083 479 1161 b 388 1083 392 1161 388 1097 l 286 1097 "},"Ŋ":{"ha":1019,"x_min":0,"x_max":0,"o":"m 606 -176 l 685 -176 b 786 -76 760 -176 786 -162 l 786 0 l 731 0 l 233 856 l 233 0 l 125 0 l 125 972 l 275 972 l 786 93 l 786 972 l 894 972 l 894 -106 b 701 -278 894 -226 821 -278 l 606 -278 "},"O":{"ha":1060,"x_min":0,"x_max":0,"o":"m 531 -22 b 83 486 308 -22 83 139 b 531 994 83 833 308 994 b 976 486 753 994 976 833 b 531 -22 976 139 753 -22 m 192 486 b 531 79 192 264 308 79 b 868 486 753 79 868 264 b 531 893 868 708 753 893 b 192 486 308 893 192 708 "},"Ó":{"ha":1060,"x_min":0,"x_max":0,"o":"m 531 -22 b 83 486 308 -22 83 139 b 531 994 83 833 308 994 b 976 486 753 994 976 833 b 531 -22 976 139 753 -22 m 192 486 b 531 79 192 264 308 79 b 868 486 753 79 868 264 b 531 893 868 708 753 893 b 192 486 308 893 192 708 m 576 1292 l 706 1292 l 581 1083 l 493 1083 "},"Ŏ":{"ha":1060,"x_min":0,"x_max":0,"o":"m 531 -22 b 83 486 308 -22 83 139 b 531 994 83 833 308 994 b 976 486 753 994 976 833 b 531 -22 976 139 753 -22 m 192 486 b 531 79 192 264 308 79 b 868 486 753 79 868 264 b 531 893 868 708 753 893 b 192 486 308 893 192 708 m 411 1292 b 531 1172 413 1225 465 1172 b 650 1292 596 1172 649 1225 l 739 1292 b 531 1083 739 1175 646 1083 b 322 1292 414 1083 322 1175 "},"Ô":{"ha":1060,"x_min":0,"x_max":0,"o":"m 531 -22 b 83 486 308 -22 83 139 b 531 994 83 833 308 994 b 976 486 753 994 976 833 b 531 -22 976 139 753 -22 m 192 486 b 531 79 192 264 308 79 b 868 486 753 79 868 264 b 531 893 868 708 753 893 b 192 486 308 893 192 708 m 451 1292 l 610 1292 l 707 1083 l 619 1083 l 531 1236 l 442 1083 l 354 1083 "},"Ö":{"ha":1060,"x_min":0,"x_max":0,"o":"m 531 -22 b 83 486 308 -22 83 139 b 531 994 83 833 308 994 b 976 486 753 994 976 833 b 531 -22 976 139 753 -22 m 192 486 b 531 79 192 264 308 79 b 868 486 753 79 868 264 b 531 893 868 708 753 893 b 192 486 308 893 192 708 m 358 1208 l 483 1208 l 483 1083 l 358 1083 m 578 1208 l 703 1208 l 703 1083 l 578 1083 "},"Ò":{"ha":1060,"x_min":0,"x_max":0,"o":"m 531 -22 b 83 486 308 -22 83 139 b 531 994 83 833 308 994 b 976 486 753 994 976 833 b 531 -22 976 139 753 -22 m 192 486 b 531 79 192 264 308 79 b 868 486 753 79 868 264 b 531 893 868 708 753 893 b 192 486 308 893 192 708 m 483 1292 l 567 1083 l 479 1083 l 354 1292 "},"Ő":{"ha":1060,"x_min":0,"x_max":0,"o":"m 531 -22 b 83 486 308 -22 83 139 b 531 994 83 833 308 994 b 976 486 753 994 976 833 b 531 -22 976 139 753 -22 m 192 486 b 531 79 192 264 308 79 b 868 486 753 79 868 264 b 531 893 868 708 753 893 b 192 486 308 893 192 708 m 471 1292 l 600 1292 l 475 1083 l 388 1083 m 683 1292 l 813 1292 l 688 1083 l 600 1083 "},"Ō":{"ha":1060,"x_min":0,"x_max":0,"o":"m 531 -22 b 83 486 308 -22 83 139 b 531 994 83 833 308 994 b 976 486 753 994 976 833 b 531 -22 976 139 753 -22 m 192 486 b 531 79 192 264 308 79 b 868 486 753 79 868 264 b 531 893 868 708 753 893 b 192 486 308 893 192 708 m 335 1171 l 726 1171 l 726 1083 l 335 1083 "},"Ø":{"ha":1060,"x_min":0,"x_max":0,"o":"m 193 136 b 83 486 126 218 83 335 b 531 994 83 833 308 994 b 799 904 625 994 721 965 l 924 1063 l 1046 1063 l 868 836 b 976 486 933 754 976 638 b 531 -22 976 139 753 -22 b 263 68 436 -22 340 7 l 136 -92 l 14 -92 m 192 486 b 261 222 192 386 215 294 l 735 824 b 531 893 682 867 614 893 b 192 486 308 893 192 708 m 326 149 b 531 79 379 106 447 79 b 868 486 753 79 868 264 b 799 750 868 586 844 678 l 326 149 "},"Ǿ":{"ha":1060,"x_min":0,"x_max":0,"o":"m 193 136 b 83 486 126 218 83 335 b 531 994 83 833 308 994 b 799 904 625 994 721 965 l 924 1063 l 1046 1063 l 868 836 b 976 486 933 754 976 638 b 531 -22 976 139 753 -22 b 263 68 436 -22 340 7 l 136 -92 l 14 -92 m 192 486 b 261 222 192 386 215 294 l 735 824 b 531 893 682 867 614 893 b 192 486 308 893 192 708 m 326 149 b 531 79 379 106 447 79 b 868 486 753 79 868 264 b 799 750 868 586 844 678 l 326 149 m 576 1292 l 706 1292 l 581 1083 l 493 1083 "},"Õ":{"ha":1060,"x_min":0,"x_max":0,"o":"m 531 -22 b 83 486 308 -22 83 139 b 531 994 83 833 308 994 b 976 486 753 994 976 833 b 531 -22 976 139 753 -22 m 192 486 b 531 79 192 264 308 79 b 868 486 753 79 868 264 b 531 893 868 708 753 893 b 192 486 308 893 192 708 m 307 1097 b 444 1249 307 1181 357 1249 b 603 1171 528 1249 561 1171 b 653 1249 658 1171 653 1235 l 754 1235 b 617 1083 754 1151 700 1083 b 458 1161 533 1083 500 1161 b 408 1083 413 1161 408 1097 l 307 1097 "},"Œ":{"ha":1532,"x_min":0,"x_max":0,"o":"m 531 -22 b 83 486 308 -22 83 139 b 531 994 83 833 308 994 b 868 836 656 994 782 943 l 868 972 l 1435 972 l 1435 871 l 976 871 l 976 556 l 1365 556 l 1365 454 l 976 454 l 976 101 l 1435 101 l 1435 0 l 868 0 l 868 136 b 531 -22 782 29 656 -22 m 192 486 b 531 79 192 264 308 79 b 868 486 753 79 868 264 b 531 893 868 708 753 893 b 192 486 308 893 192 708 "},"P":{"ha":807,"x_min":0,"x_max":0,"o":"m 125 972 l 431 972 b 751 700 514 972 751 943 b 431 429 751 458 514 429 l 233 429 l 233 0 l 125 0 m 403 531 b 643 700 556 531 643 575 b 403 871 643 825 556 871 l 233 871 l 233 531 "},"Þ":{"ha":835,"x_min":0,"x_max":0,"o":"m 125 972 l 233 972 l 233 774 l 431 774 b 751 501 514 774 751 744 b 431 231 751 260 514 231 l 233 231 l 233 0 l 125 0 m 403 332 b 643 501 556 332 643 376 b 403 672 643 626 556 672 l 233 672 l 233 332 "},"Q":{"ha":1085,"x_min":0,"x_max":0,"o":"m 794 64 b 531 -22 717 6 624 -22 b 83 486 308 -22 83 139 b 531 994 83 833 308 994 b 976 486 753 994 976 833 b 863 131 976 331 932 213 l 1043 -92 l 921 -92 m 192 486 b 531 79 192 264 308 79 b 729 144 611 79 676 103 l 456 481 l 578 481 l 794 215 b 868 486 843 288 868 382 b 531 893 868 708 753 893 b 192 486 308 893 192 708 "},"R":{"ha":876,"x_min":0,"x_max":0,"o":"m 125 972 l 431 972 b 751 700 514 972 751 943 b 575 471 751 561 671 489 b 751 221 706 456 740 396 l 765 0 l 654 0 l 640 242 b 460 429 633 356 619 429 l 233 429 l 233 0 l 125 0 m 403 531 b 643 700 556 531 643 575 b 403 871 643 825 556 871 l 233 871 l 233 531 "},"Ŕ":{"ha":876,"x_min":0,"x_max":0,"o":"m 125 972 l 431 972 b 751 700 514 972 751 943 b 575 471 751 561 671 489 b 751 221 706 456 740 396 l 765 0 l 654 0 l 640 242 b 460 429 633 356 619 429 l 233 429 l 233 0 l 125 0 m 403 531 b 643 700 556 531 643 575 b 403 871 643 825 556 871 l 233 871 l 233 531 m 464 1292 l 593 1292 l 468 1083 l 381 1083 "},"Ř":{"ha":876,"x_min":0,"x_max":0,"o":"m 125 972 l 431 972 b 751 700 514 972 751 943 b 575 471 751 561 671 489 b 751 221 706 456 740 396 l 765 0 l 654 0 l 640 242 b 460 429 633 356 619 429 l 233 429 l 233 0 l 125 0 m 403 531 b 643 700 556 531 643 575 b 403 871 643 825 556 871 l 233 871 l 233 531 m 329 1292 l 418 1139 l 507 1292 l 594 1292 l 497 1083 l 339 1083 l 242 1292 "},"Ŗ":{"ha":876,"x_min":0,"x_max":0,"o":"m 125 972 l 431 972 b 751 700 514 972 751 943 b 575 471 751 561 671 489 b 751 221 706 456 740 396 l 765 0 l 654 0 l 640 242 b 460 429 633 356 619 429 l 233 429 l 233 0 l 125 0 m 403 531 b 643 700 556 531 643 575 b 403 871 643 825 556 871 l 233 871 l 233 531 m 363 -285 b 443 -208 438 -285 443 -264 l 376 -208 l 376 -97 l 515 -97 l 515 -208 b 363 -344 515 -317 465 -344 "},"S":{"ha":883,"x_min":0,"x_max":0,"o":"m 458 -22 b 97 369 250 -22 97 106 l 206 383 b 458 79 206 175 306 79 b 678 265 597 79 678 154 b 458 471 678 390 593 436 b 144 747 222 532 144 608 b 444 994 144 886 264 994 b 742 706 625 994 742 886 l 633 692 b 444 893 633 817 556 893 b 253 747 333 893 253 844 b 458 572 253 650 324 607 b 786 265 686 513 786 432 b 458 -22 786 99 667 -22 "},"Ś":{"ha":883,"x_min":0,"x_max":0,"o":"m 458 -22 b 97 369 250 -22 97 106 l 206 383 b 458 79 206 175 306 79 b 678 265 597 79 678 154 b 458 471 678 390 593 436 b 144 747 222 532 144 608 b 444 994 144 886 264 994 b 742 706 625 994 742 886 l 633 692 b 444 893 633 817 556 893 b 253 747 333 893 253 844 b 458 572 253 650 324 607 b 786 265 686 513 786 432 b 458 -22 786 99 667 -22 m 489 1292 l 618 1292 l 493 1083 l 406 1083 "},"Š":{"ha":883,"x_min":0,"x_max":0,"o":"m 458 -22 b 97 369 250 -22 97 106 l 206 383 b 458 79 206 175 306 79 b 678 265 597 79 678 154 b 458 471 678 390 593 436 b 144 747 222 532 144 608 b 444 994 144 886 264 994 b 742 706 625 994 742 886 l 633 692 b 444 893 633 817 556 893 b 253 747 333 893 253 844 b 458 572 253 650 324 607 b 786 265 686 513 786 432 b 458 -22 786 99 667 -22 m 353 1292 l 442 1139 l 531 1292 l 618 1292 l 521 1083 l 363 1083 l 265 1292 "},"Ş":{"ha":883,"x_min":0,"x_max":0,"o":"m 469 -300 b 346 -201 407 -300 353 -262 l 425 -187 b 469 -224 429 -210 446 -224 b 517 -176 497 -224 517 -204 b 469 -131 517 -149 497 -131 b 429 -154 450 -131 436 -139 l 358 -122 l 394 -18 b 97 369 219 7 97 133 l 206 383 b 458 79 206 175 306 79 b 678 265 597 79 678 154 b 458 471 678 390 593 436 b 144 747 222 532 144 608 b 444 994 144 886 264 994 b 742 706 625 994 742 886 l 633 692 b 444 893 633 817 556 893 b 253 747 333 893 253 844 b 458 572 253 650 324 607 b 786 265 686 513 786 432 b 475 -22 786 103 674 -15 l 464 -53 l 469 -53 b 593 -176 536 -53 593 -110 b 469 -300 593 -243 536 -300 "},"Ŝ":{"ha":883,"x_min":0,"x_max":0,"o":"m 458 -22 b 97 369 250 -22 97 106 l 206 383 b 458 79 206 175 306 79 b 678 265 597 79 678 154 b 458 471 678 390 593 436 b 144 747 222 532 144 608 b 444 994 144 886 264 994 b 742 706 625 994 742 886 l 633 692 b 444 893 633 817 556 893 b 253 747 333 893 253 844 b 458 572 253 650 324 607 b 786 265 686 513 786 432 b 458 -22 786 99 667 -22 m 363 1292 l 521 1292 l 618 1083 l 531 1083 l 442 1236 l 353 1083 l 265 1083 "},"Ș":{"ha":883,"x_min":0,"x_max":0,"o":"m 458 -22 b 97 369 250 -22 97 106 l 206 383 b 458 79 206 175 306 79 b 678 265 597 79 678 154 b 458 471 678 390 593 436 b 144 747 222 532 144 608 b 444 994 144 886 264 994 b 742 706 625 994 742 886 l 633 692 b 444 893 633 817 556 893 b 253 747 333 893 253 844 b 458 572 253 650 324 607 b 786 265 686 513 786 432 b 458 -22 786 99 667 -22 m 358 -285 b 439 -208 433 -285 439 -264 l 372 -208 l 372 -97 l 511 -97 l 511 -208 b 358 -344 511 -317 461 -344 "},"ẞ":{"ha":906,"x_min":0,"x_max":0,"o":"m 400 106 l 469 106 b 711 292 581 106 711 153 b 469 475 711 431 581 475 l 400 475 l 400 581 l 638 878 l 233 878 l 233 0 l 125 0 l 125 972 l 653 972 b 725 815 742 972 783 883 l 519 574 b 822 292 701 557 822 456 b 469 0 822 111 682 0 l 400 0 "},"T":{"ha":886,"x_min":0,"x_max":0,"o":"m 389 871 l 42 871 l 42 972 l 844 972 l 844 871 l 497 871 l 497 0 l 389 0 "},"Ŧ":{"ha":886,"x_min":0,"x_max":0,"o":"m 221 533 l 389 533 l 389 871 l 42 871 l 42 972 l 844 972 l 844 871 l 497 871 l 497 533 l 667 533 l 667 447 l 497 447 l 497 0 l 389 0 l 389 447 l 221 447 "},"Ť":{"ha":886,"x_min":0,"x_max":0,"o":"m 389 871 l 42 871 l 42 972 l 844 972 l 844 871 l 497 871 l 497 0 l 389 0 m 354 1292 l 443 1139 l 532 1292 l 619 1292 l 522 1083 l 364 1083 l 267 1292 "},"Ţ":{"ha":886,"x_min":0,"x_max":0,"o":"m 42 972 l 844 972 l 844 871 l 497 871 l 497 0 l 471 0 l 451 -53 l 457 -53 b 581 -176 524 -53 581 -110 b 457 -300 581 -243 524 -300 b 333 -201 394 -300 340 -262 l 413 -187 b 457 -224 417 -210 433 -224 b 504 -176 485 -224 504 -204 b 457 -131 504 -149 485 -131 b 417 -154 438 -131 424 -139 l 346 -122 l 389 3 l 389 871 l 42 871 "},"Ț":{"ha":886,"x_min":0,"x_max":0,"o":"m 389 871 l 42 871 l 42 972 l 844 972 l 844 871 l 497 871 l 497 0 l 389 0 m 360 -285 b 440 -208 435 -285 440 -264 l 374 -208 l 374 -97 l 513 -97 l 513 -208 b 360 -344 513 -317 463 -344 "},"U":{"ha":938,"x_min":0,"x_max":0,"o":"m 469 -22 b 125 336 275 -22 125 100 l 125 972 l 233 972 l 233 336 b 469 79 233 156 344 79 b 704 336 594 79 704 156 l 704 972 l 813 972 l 813 336 b 469 -22 813 100 664 -22 "},"Ú":{"ha":938,"x_min":0,"x_max":0,"o":"m 469 -22 b 125 336 275 -22 125 100 l 125 972 l 233 972 l 233 336 b 469 79 233 156 344 79 b 704 336 594 79 704 156 l 704 972 l 813 972 l 813 336 b 469 -22 813 100 664 -22 m 515 1292 l 644 1292 l 519 1083 l 432 1083 "},"Ŭ":{"ha":938,"x_min":0,"x_max":0,"o":"m 469 -22 b 125 336 275 -22 125 100 l 125 972 l 233 972 l 233 336 b 469 79 233 156 344 79 b 704 336 594 79 704 156 l 704 972 l 813 972 l 813 336 b 469 -22 813 100 664 -22 m 350 1292 b 469 1172 351 1225 404 1172 b 589 1292 535 1172 588 1225 l 678 1292 b 469 1083 678 1175 585 1083 b 261 1292 353 1083 261 1175 "},"Û":{"ha":938,"x_min":0,"x_max":0,"o":"m 469 -22 b 125 336 275 -22 125 100 l 125 972 l 233 972 l 233 336 b 469 79 233 156 344 79 b 704 336 594 79 704 156 l 704 972 l 813 972 l 813 336 b 469 -22 813 100 664 -22 m 390 1292 l 549 1292 l 646 1083 l 558 1083 l 469 1236 l 381 1083 l 293 1083 "},"Ü":{"ha":938,"x_min":0,"x_max":0,"o":"m 469 -22 b 125 336 275 -22 125 100 l 125 972 l 233 972 l 233 336 b 469 79 233 156 344 79 b 704 336 594 79 704 156 l 704 972 l 813 972 l 813 336 b 469 -22 813 100 664 -22 m 297 1208 l 422 1208 l 422 1083 l 297 1083 m 517 1208 l 642 1208 l 642 1083 l 517 1083 "},"Ù":{"ha":938,"x_min":0,"x_max":0,"o":"m 469 -22 b 125 336 275 -22 125 100 l 125 972 l 233 972 l 233 336 b 469 79 233 156 344 79 b 704 336 594 79 704 156 l 704 972 l 813 972 l 813 336 b 469 -22 813 100 664 -22 m 422 1292 l 506 1083 l 418 1083 l 293 1292 "},"Ű":{"ha":938,"x_min":0,"x_max":0,"o":"m 469 -22 b 125 336 275 -22 125 100 l 125 972 l 233 972 l 233 336 b 469 79 233 156 344 79 b 704 336 594 79 704 156 l 704 972 l 813 972 l 813 336 b 469 -22 813 100 664 -22 m 410 1292 l 539 1292 l 414 1083 l 326 1083 m 622 1292 l 751 1292 l 626 1083 l 539 1083 "},"Ū":{"ha":938,"x_min":0,"x_max":0,"o":"m 469 -22 b 125 336 275 -22 125 100 l 125 972 l 233 972 l 233 336 b 469 79 233 156 344 79 b 704 336 594 79 704 156 l 704 972 l 813 972 l 813 336 b 469 -22 813 100 664 -22 m 274 1171 l 665 1171 l 665 1083 l 274 1083 "},"Ų":{"ha":938,"x_min":0,"x_max":0,"o":"m 497 -247 b 374 -124 417 -247 374 -190 b 425 -19 374 -82 392 -47 b 125 336 253 -3 125 118 l 125 972 l 233 972 l 233 336 b 469 79 233 156 344 79 b 704 336 594 79 704 156 l 704 972 l 813 972 l 813 336 b 578 -8 813 146 717 29 b 464 -107 493 -31 464 -68 b 507 -157 464 -137 486 -157 b 556 -107 528 -157 556 -149 l 635 -121 b 497 -247 635 -204 574 -247 "},"Ů":{"ha":938,"x_min":0,"x_max":0,"o":"m 469 -22 b 125 336 275 -22 125 100 l 125 972 l 233 972 l 233 336 b 469 79 233 156 344 79 b 704 336 594 79 704 156 l 704 972 l 813 972 l 813 336 b 469 -22 813 100 664 -22 m 324 1215 b 469 1361 324 1294 390 1361 b 615 1215 549 1361 615 1294 b 469 1069 615 1136 549 1069 b 324 1215 390 1069 324 1136 m 414 1215 b 469 1160 414 1183 438 1160 b 525 1215 501 1160 525 1183 b 469 1271 525 1247 501 1271 b 414 1215 438 1271 414 1247 "},"Ũ":{"ha":938,"x_min":0,"x_max":0,"o":"m 469 -22 b 125 336 275 -22 125 100 l 125 972 l 233 972 l 233 336 b 469 79 233 156 344 79 b 704 336 594 79 704 156 l 704 972 l 813 972 l 813 336 b 469 -22 813 100 664 -22 m 246 1097 b 383 1249 246 1181 296 1249 b 542 1171 467 1249 500 1171 b 592 1249 597 1171 592 1235 l 693 1235 b 556 1083 693 1151 639 1083 b 397 1161 472 1083 439 1161 b 347 1083 351 1161 347 1097 l 246 1097 "},"V":{"ha":886,"x_min":0,"x_max":0,"o":"m 42 972 l 150 972 l 449 110 l 736 972 l 844 972 l 521 0 l 379 0 "},"W":{"ha":1217,"x_min":0,"x_max":0,"o":"m 56 972 l 164 972 l 375 115 l 561 972 l 656 972 l 842 115 l 1053 972 l 1161 972 l 922 0 l 772 0 l 608 751 l 444 0 l 294 0 "},"Ẃ":{"ha":1217,"x_min":0,"x_max":0,"o":"m 56 972 l 164 972 l 375 115 l 561 972 l 656 972 l 842 115 l 1053 972 l 1161 972 l 922 0 l 772 0 l 608 751 l 444 0 l 294 0 m 656 1292 l 785 1292 l 660 1083 l 572 1083 "},"Ŵ":{"ha":1217,"x_min":0,"x_max":0,"o":"m 56 972 l 164 972 l 375 115 l 561 972 l 656 972 l 842 115 l 1053 972 l 1161 972 l 922 0 l 772 0 l 608 751 l 444 0 l 294 0 m 529 1292 l 688 1292 l 785 1083 l 697 1083 l 608 1236 l 519 1083 l 432 1083 "},"Ẅ":{"ha":1217,"x_min":0,"x_max":0,"o":"m 56 972 l 164 972 l 375 115 l 561 972 l 656 972 l 842 115 l 1053 972 l 1161 972 l 922 0 l 772 0 l 608 751 l 444 0 l 294 0 m 422 1208 l 547 1208 l 547 1083 l 422 1083 m 642 1208 l 767 1208 l 767 1083 l 642 1083 "},"Ẁ":{"ha":1217,"x_min":0,"x_max":0,"o":"m 56 972 l 164 972 l 375 115 l 561 972 l 656 972 l 842 115 l 1053 972 l 1161 972 l 922 0 l 772 0 l 608 751 l 444 0 l 294 0 m 563 1292 l 646 1083 l 558 1083 l 433 1292 "},"X":{"ha":857,"x_min":0,"x_max":0,"o":"m 429 397 l 161 0 l 42 0 l 369 486 l 42 972 l 161 972 l 429 575 l 696 972 l 815 972 l 488 486 l 815 0 l 696 0 "},"Y":{"ha":800,"x_min":0,"x_max":0,"o":"m 343 282 l 42 972 l 150 972 l 400 414 l 643 972 l 758 972 l 335 0 l 219 0 "},"Ý":{"ha":800,"x_min":0,"x_max":0,"o":"m 343 282 l 42 972 l 150 972 l 400 414 l 643 972 l 758 972 l 335 0 l 219 0 m 447 1292 l 576 1292 l 451 1083 l 364 1083 "},"Ŷ":{"ha":800,"x_min":0,"x_max":0,"o":"m 343 282 l 42 972 l 150 972 l 400 414 l 643 972 l 758 972 l 335 0 l 219 0 m 321 1292 l 479 1292 l 576 1083 l 489 1083 l 400 1236 l 311 1083 l 224 1083 "},"Ÿ":{"ha":800,"x_min":0,"x_max":0,"o":"m 343 282 l 42 972 l 150 972 l 400 414 l 643 972 l 758 972 l 335 0 l 219 0 m 228 1208 l 353 1208 l 353 1083 l 228 1083 m 447 1208 l 572 1208 l 572 1083 l 447 1083 "},"Ỳ":{"ha":800,"x_min":0,"x_max":0,"o":"m 343 282 l 42 972 l 150 972 l 400 414 l 643 972 l 758 972 l 335 0 l 219 0 m 354 1292 l 438 1083 l 350 1083 l 225 1292 "},"Ỹ":{"ha":800,"x_min":0,"x_max":0,"o":"m 343 282 l 42 972 l 150 972 l 400 414 l 643 972 l 758 972 l 335 0 l 219 0 m 176 1097 b 314 1249 176 1181 226 1249 b 472 1171 397 1249 431 1171 b 522 1249 528 1171 522 1235 l 624 1235 b 486 1083 624 1151 569 1083 b 328 1161 403 1083 369 1161 b 278 1083 282 1161 278 1097 l 176 1097 "},"Z":{"ha":833,"x_min":0,"x_max":0,"o":"m 603 871 l 111 871 l 111 972 l 722 972 l 722 871 l 231 101 l 722 101 l 722 0 l 111 0 l 111 101 "},"Ź":{"ha":833,"x_min":0,"x_max":0,"o":"m 603 871 l 111 871 l 111 972 l 722 972 l 722 871 l 231 101 l 722 101 l 722 0 l 111 0 l 111 101 m 464 1292 l 593 1292 l 468 1083 l 381 1083 "},"Ž":{"ha":833,"x_min":0,"x_max":0,"o":"m 603 871 l 111 871 l 111 972 l 722 972 l 722 871 l 231 101 l 722 101 l 722 0 l 111 0 l 111 101 m 328 1292 l 417 1139 l 506 1292 l 593 1292 l 496 1083 l 338 1083 l 240 1292 "},"Ż":{"ha":833,"x_min":0,"x_max":0,"o":"m 603 871 l 111 871 l 111 972 l 722 972 l 722 871 l 231 101 l 722 101 l 722 0 l 111 0 l 111 101 m 351 1214 l 482 1214 l 482 1083 l 351 1083 "},"a":{"ha":735,"x_min":0,"x_max":0,"o":"m 318 -22 b 83 186 207 -22 83 47 b 372 421 83 339 193 397 b 532 542 454 432 571 442 b 372 615 507 607 414 615 b 206 483 261 615 206 567 l 97 497 b 372 717 97 650 247 717 b 638 494 497 717 638 661 l 638 0 l 536 0 l 536 139 b 318 -22 506 49 425 -22 m 192 181 b 318 79 192 125 249 79 b 536 351 429 79 536 157 l 536 389 b 351 319 510 351 444 331 b 192 181 242 304 192 250 "},"á":{"ha":735,"x_min":0,"x_max":0,"o":"m 318 -22 b 83 186 207 -22 83 47 b 372 421 83 339 193 397 b 532 542 454 432 571 442 b 372 615 507 607 414 615 b 206 483 261 615 206 567 l 97 497 b 372 717 97 650 247 717 b 638 494 497 717 638 661 l 638 0 l 536 0 l 536 139 b 318 -22 506 49 425 -22 m 192 181 b 318 79 192 125 249 79 b 536 351 429 79 536 157 l 536 389 b 351 319 510 351 444 331 b 192 181 242 304 192 250 m 421 1014 l 550 1014 l 425 806 l 338 806 "},"ă":{"ha":735,"x_min":0,"x_max":0,"o":"m 318 -22 b 83 186 207 -22 83 47 b 372 421 83 339 193 397 b 532 542 454 432 571 442 b 372 615 507 607 414 615 b 206 483 261 615 206 567 l 97 497 b 372 717 97 650 247 717 b 638 494 497 717 638 661 l 638 0 l 536 0 l 536 139 b 318 -22 506 49 425 -22 m 254 1014 b 374 894 256 947 308 894 b 493 1014 439 894 492 947 l 582 1014 b 374 806 582 897 489 806 b 165 1014 257 806 165 897 m 192 181 b 318 79 192 125 249 79 b 536 351 429 79 536 157 l 536 389 b 351 319 510 351 444 331 b 192 181 242 304 192 250 "},"â":{"ha":735,"x_min":0,"x_max":0,"o":"m 318 -22 b 83 186 207 -22 83 47 b 372 421 83 339 193 397 b 532 542 454 432 571 442 b 372 615 507 607 414 615 b 206 483 261 615 206 567 l 97 497 b 372 717 97 650 247 717 b 638 494 497 717 638 661 l 638 0 l 536 0 l 536 139 b 318 -22 506 49 425 -22 m 192 181 b 318 79 192 125 249 79 b 536 351 429 79 536 157 l 536 389 b 351 319 510 351 444 331 b 192 181 242 304 192 250 m 294 1014 l 453 1014 l 550 806 l 463 806 l 374 958 l 285 806 l 197 806 "},"ä":{"ha":735,"x_min":0,"x_max":0,"o":"m 318 -22 b 83 186 207 -22 83 47 b 372 421 83 339 193 397 b 532 542 454 432 571 442 b 372 615 507 607 414 615 b 206 483 261 615 206 567 l 97 497 b 372 717 97 650 247 717 b 638 494 497 717 638 661 l 638 0 l 536 0 l 536 139 b 318 -22 506 49 425 -22 m 192 181 b 318 79 192 125 249 79 b 536 351 429 79 536 157 l 536 389 b 351 319 510 351 444 331 b 192 181 242 304 192 250 m 203 931 l 328 931 l 328 806 l 203 806 m 422 931 l 547 931 l 547 806 l 422 806 "},"à":{"ha":735,"x_min":0,"x_max":0,"o":"m 318 -22 b 83 186 207 -22 83 47 b 372 421 83 339 193 397 b 532 542 454 432 571 442 b 372 615 507 607 414 615 b 206 483 261 615 206 567 l 97 497 b 372 717 97 650 247 717 b 638 494 497 717 638 661 l 638 0 l 536 0 l 536 139 b 318 -22 506 49 425 -22 m 192 181 b 318 79 192 125 249 79 b 536 351 429 79 536 157 l 536 389 b 351 319 510 351 444 331 b 192 181 242 304 192 250 m 328 1014 l 411 806 l 324 806 l 199 1014 "},"ā":{"ha":735,"x_min":0,"x_max":0,"o":"m 318 -22 b 83 186 207 -22 83 47 b 372 421 83 339 193 397 b 532 542 454 432 571 442 b 372 615 507 607 414 615 b 206 483 261 615 206 567 l 97 497 b 372 717 97 650 247 717 b 638 494 497 717 638 661 l 638 0 l 536 0 l 536 139 b 318 -22 506 49 425 -22 m 178 893 l 569 893 l 569 806 l 178 806 m 192 181 b 318 79 192 125 249 79 b 536 351 429 79 536 157 l 536 389 b 351 319 510 351 444 331 b 192 181 242 304 192 250 "},"ą":{"ha":757,"x_min":0,"x_max":0,"o":"m 318 -22 b 83 186 207 -22 83 47 b 372 421 83 339 193 397 b 532 542 454 432 571 442 b 372 615 507 607 414 615 b 206 483 261 615 206 567 l 97 497 b 372 717 97 650 247 717 b 638 494 497 717 638 661 l 638 0 b 558 -107 588 -28 558 -68 b 601 -157 558 -137 581 -157 b 650 -107 622 -157 650 -149 l 729 -121 b 592 -247 729 -204 668 -247 b 468 -124 511 -247 468 -190 b 550 0 468 -71 497 -28 l 536 0 l 536 139 b 318 -22 506 49 425 -22 m 192 181 b 318 79 192 125 249 79 b 536 351 429 79 536 157 l 536 389 b 351 319 510 351 444 331 b 192 181 242 304 192 250 "},"å":{"ha":735,"x_min":0,"x_max":0,"o":"m 318 -22 b 83 186 207 -22 83 47 b 372 421 83 339 193 397 b 532 542 454 432 571 442 b 372 615 507 607 414 615 b 206 483 261 615 206 567 l 97 497 b 372 717 97 650 247 717 b 638 494 497 717 638 661 l 638 0 l 536 0 l 536 139 b 318 -22 506 49 425 -22 m 192 181 b 318 79 192 125 249 79 b 536 351 429 79 536 157 l 536 389 b 351 319 510 351 444 331 b 192 181 242 304 192 250 m 229 938 b 375 1083 229 1017 296 1083 b 521 938 454 1083 521 1017 b 375 792 521 858 454 792 b 229 938 296 792 229 858 m 319 938 b 375 882 319 906 343 882 b 431 938 407 882 431 906 b 375 993 431 969 407 993 b 319 938 343 993 319 969 "},"ã":{"ha":735,"x_min":0,"x_max":0,"o":"m 318 -22 b 83 186 207 -22 83 47 b 372 421 83 339 193 397 b 532 542 454 432 571 442 b 372 615 507 607 414 615 b 206 483 261 615 206 567 l 97 497 b 372 717 97 650 247 717 b 638 494 497 717 638 661 l 638 0 l 536 0 l 536 139 b 318 -22 506 49 425 -22 m 150 819 b 288 971 150 903 200 971 b 446 893 371 971 404 893 b 496 971 501 893 496 957 l 597 957 b 460 806 597 874 543 806 b 301 883 376 806 343 883 b 251 806 256 883 251 819 l 150 819 m 192 181 b 318 79 192 125 249 79 b 536 351 429 79 536 157 l 536 389 b 351 319 510 351 444 331 b 192 181 242 304 192 250 "},"æ":{"ha":1246,"x_min":0,"x_max":0,"o":"m 318 -22 b 83 186 207 -22 83 47 b 372 421 83 339 193 397 b 532 542 454 432 571 442 b 372 615 507 607 414 615 b 206 483 261 615 206 567 l 97 497 b 372 717 97 650 247 717 b 614 599 467 717 569 685 b 864 717 676 678 769 717 b 1163 344 1031 717 1163 594 l 1163 319 l 644 319 b 864 79 644 194 725 79 b 1050 214 1003 79 1036 158 l 1158 200 b 864 -22 1131 61 1031 -22 b 571 165 744 -22 628 38 b 318 -22 546 46 439 -22 m 192 181 b 318 79 192 125 249 79 b 536 351 429 79 536 157 l 536 389 b 351 319 510 351 444 331 b 192 181 242 304 192 250 m 1054 414 b 864 615 1054 497 1003 615 b 644 414 725 615 644 497 "},"ǽ":{"ha":1246,"x_min":0,"x_max":0,"o":"m 318 -22 b 83 186 207 -22 83 47 b 372 421 83 339 193 397 b 532 542 454 432 571 442 b 372 615 507 607 414 615 b 206 483 261 615 206 567 l 97 497 b 372 717 97 650 247 717 b 614 599 467 717 569 685 b 864 717 676 678 769 717 b 1163 344 1031 717 1163 594 l 1163 319 l 644 319 b 864 79 644 194 725 79 b 1050 214 1003 79 1036 158 l 1158 200 b 864 -22 1131 61 1031 -22 b 571 165 744 -22 628 38 b 318 -22 546 46 439 -22 m 192 181 b 318 79 192 125 249 79 b 536 351 429 79 536 157 l 536 389 b 351 319 510 351 444 331 b 192 181 242 304 192 250 m 669 1014 l 799 1014 l 674 806 l 586 806 m 1054 414 b 864 615 1054 497 1003 615 b 644 414 725 615 644 497 "},"b":{"ha":846,"x_min":0,"x_max":0,"o":"m 454 -22 b 226 147 328 -22 249 51 l 226 0 l 125 0 l 125 972 l 226 972 l 226 547 b 454 717 249 643 328 717 b 763 347 649 717 763 542 b 454 -22 763 153 649 -22 m 226 347 b 440 79 226 167 329 79 b 654 347 560 79 654 167 b 440 615 654 528 551 615 b 226 347 329 615 226 528 "},"c":{"ha":786,"x_min":0,"x_max":0,"o":"m 411 -22 b 83 344 244 -22 83 94 b 411 717 83 594 244 717 b 717 440 578 717 685 636 l 608 426 b 411 615 586 535 536 615 b 192 344 258 615 192 483 b 411 79 192 206 258 79 b 608 260 536 79 586 150 l 717 246 b 411 -22 685 53 578 -22 "},"ć":{"ha":786,"x_min":0,"x_max":0,"o":"m 411 -22 b 83 344 244 -22 83 94 b 411 717 83 594 244 717 b 717 440 578 717 685 636 l 608 426 b 411 615 586 535 536 615 b 192 344 258 615 192 483 b 411 79 192 206 258 79 b 608 260 536 79 586 150 l 717 246 b 411 -22 685 53 578 -22 m 447 1014 l 576 1014 l 451 806 l 364 806 "},"č":{"ha":786,"x_min":0,"x_max":0,"o":"m 224 1014 l 311 1014 l 400 861 l 489 1014 l 576 1014 l 479 806 l 321 806 m 83 344 b 411 717 83 594 244 717 b 717 440 578 717 685 636 l 608 426 b 411 615 586 535 536 615 b 192 344 258 615 192 483 b 411 79 192 206 258 79 b 608 260 536 79 586 150 l 717 246 b 411 -22 685 53 578 -22 b 83 344 244 -22 83 94 "},"ç":{"ha":786,"x_min":0,"x_max":0,"o":"m 414 -300 b 290 -201 351 -300 297 -262 l 369 -187 b 414 -224 374 -210 390 -224 b 461 -176 442 -224 461 -204 b 414 -131 461 -149 442 -131 b 374 -154 394 -131 381 -139 l 303 -122 l 339 -15 b 83 344 201 14 83 131 b 411 717 83 594 244 717 b 717 440 578 717 685 636 l 608 426 b 411 615 586 535 536 615 b 192 344 258 615 192 483 b 411 79 192 206 258 79 b 608 260 536 79 586 150 l 717 246 b 419 -22 685 56 582 -19 l 408 -53 l 414 -53 b 538 -176 481 -53 538 -110 b 414 -300 538 -243 481 -300 "},"ĉ":{"ha":786,"x_min":0,"x_max":0,"o":"m 411 -22 b 83 344 244 -22 83 94 b 411 717 83 594 244 717 b 717 440 578 717 685 636 l 608 426 b 411 615 586 535 536 615 b 192 344 258 615 192 483 b 411 79 192 206 258 79 b 608 260 536 79 586 150 l 717 246 b 411 -22 685 53 578 -22 m 321 1014 l 479 1014 l 576 806 l 489 806 l 400 958 l 311 806 l 224 806 "},"ċ":{"ha":786,"x_min":0,"x_max":0,"o":"m 411 -22 b 83 344 244 -22 83 94 b 411 717 83 594 244 717 b 717 440 578 717 685 636 l 608 426 b 411 615 586 535 536 615 b 192 344 258 615 192 483 b 411 79 192 206 258 79 b 608 260 536 79 586 150 l 717 246 b 411 -22 685 53 578 -22 m 335 936 l 465 936 l 465 806 l 335 806 "},"d":{"ha":846,"x_min":0,"x_max":0,"o":"m 392 -22 b 83 347 197 -22 83 153 b 392 717 83 542 197 717 b 619 547 518 717 597 643 l 619 972 l 721 972 l 721 0 l 619 0 l 619 147 b 392 -22 597 51 518 -22 m 192 347 b 406 79 192 167 286 79 b 619 347 517 79 619 167 b 406 615 619 528 517 615 b 192 347 294 615 192 528 "},"ð":{"ha":839,"x_min":0,"x_max":0,"o":"m 418 -22 b 83 311 233 -22 83 128 b 418 646 83 496 233 646 b 644 517 522 646 601 594 b 472 822 617 661 551 760 l 224 681 l 224 756 l 410 861 b 251 900 358 888 303 900 l 251 994 b 504 915 342 994 429 967 l 644 994 l 644 919 l 560 871 b 756 356 676 763 756 586 b 418 -22 756 175 668 -22 m 192 314 b 418 79 192 186 290 79 b 649 314 546 79 649 186 b 418 544 649 442 546 544 b 192 314 290 544 192 442 "},"ď":{"ha":915,"x_min":0,"x_max":0,"o":"m 392 -22 b 83 347 197 -22 83 153 b 392 717 83 542 197 717 b 619 547 518 717 597 643 l 619 972 l 721 972 l 721 0 l 619 0 l 619 147 b 392 -22 597 51 518 -22 m 192 347 b 406 79 192 167 286 79 b 619 347 517 79 619 167 b 406 615 619 528 517 615 b 192 347 294 615 192 528 m 804 797 b 885 874 879 797 885 818 l 818 874 l 818 985 l 957 985 l 957 874 b 804 738 957 765 907 738 "},"đ":{"ha":832,"x_min":0,"x_max":0,"o":"m 363 875 l 619 875 l 619 972 l 721 972 l 721 875 l 818 875 l 818 803 l 721 803 l 721 0 l 619 0 l 619 147 b 392 -22 597 51 518 -22 b 83 347 197 -22 83 153 b 392 717 83 542 197 717 b 619 547 518 717 597 643 l 619 803 l 363 803 m 192 347 b 406 79 192 167 286 79 b 619 347 517 79 619 167 b 406 615 619 528 517 615 b 192 347 294 615 192 528 "},"e":{"ha":793,"x_min":0,"x_max":0,"o":"m 411 -22 b 83 344 244 -22 83 94 b 411 717 83 594 244 717 b 710 344 578 717 710 594 l 710 319 l 192 319 b 411 79 192 194 272 79 b 597 214 550 79 583 158 l 706 200 b 411 -22 678 61 578 -22 m 601 414 b 411 615 601 497 550 615 b 192 414 272 615 192 497 "},"é":{"ha":793,"x_min":0,"x_max":0,"o":"m 411 -22 b 83 344 244 -22 83 94 b 411 717 83 594 244 717 b 710 344 578 717 710 594 l 710 319 l 192 319 b 411 79 192 194 272 79 b 597 214 550 79 583 158 l 706 200 b 411 -22 678 61 578 -22 m 601 414 b 411 615 601 497 550 615 b 192 414 272 615 192 497 m 443 1014 l 572 1014 l 447 806 l 360 806 "},"ĕ":{"ha":793,"x_min":0,"x_max":0,"o":"m 411 -22 b 83 344 244 -22 83 94 b 411 717 83 594 244 717 b 710 344 578 717 710 594 l 710 319 l 192 319 b 411 79 192 194 272 79 b 597 214 550 79 583 158 l 706 200 b 411 -22 678 61 578 -22 m 276 1014 b 396 894 278 947 331 894 b 515 1014 461 894 514 947 l 604 1014 b 396 806 604 897 511 806 b 188 1014 279 806 188 897 m 601 414 b 411 615 601 497 550 615 b 192 414 272 615 192 497 "},"ě":{"ha":793,"x_min":0,"x_max":0,"o":"m 221 1014 l 308 1014 l 397 861 l 486 1014 l 574 1014 l 476 806 l 318 806 m 83 344 b 411 717 83 594 244 717 b 710 344 578 717 710 594 l 710 319 l 192 319 b 411 79 192 194 272 79 b 597 214 550 79 583 158 l 706 200 b 411 -22 678 61 578 -22 b 83 344 244 -22 83 94 m 601 414 b 411 615 601 497 550 615 b 192 414 272 615 192 497 "},"ê":{"ha":793,"x_min":0,"x_max":0,"o":"m 411 -22 b 83 344 244 -22 83 94 b 411 717 83 594 244 717 b 710 344 578 717 710 594 l 710 319 l 192 319 b 411 79 192 194 272 79 b 597 214 550 79 583 158 l 706 200 b 411 -22 678 61 578 -22 m 601 414 b 411 615 601 497 550 615 b 192 414 272 615 192 497 m 318 1014 l 476 1014 l 574 806 l 486 806 l 397 958 l 308 806 l 221 806 "},"ë":{"ha":793,"x_min":0,"x_max":0,"o":"m 411 -22 b 83 344 244 -22 83 94 b 411 717 83 594 244 717 b 710 344 578 717 710 594 l 710 319 l 192 319 b 411 79 192 194 272 79 b 597 214 550 79 583 158 l 706 200 b 411 -22 678 61 578 -22 m 601 414 b 411 615 601 497 550 615 b 192 414 272 615 192 497 m 225 931 l 350 931 l 350 806 l 225 806 m 444 931 l 569 931 l 569 806 l 444 806 "},"ė":{"ha":793,"x_min":0,"x_max":0,"o":"m 411 -22 b 83 344 244 -22 83 94 b 411 717 83 594 244 717 b 710 344 578 717 710 594 l 710 319 l 192 319 b 411 79 192 194 272 79 b 597 214 550 79 583 158 l 706 200 b 411 -22 678 61 578 -22 m 601 414 b 411 615 601 497 550 615 b 192 414 272 615 192 497 m 332 936 l 463 936 l 463 806 l 332 806 "},"è":{"ha":793,"x_min":0,"x_max":0,"o":"m 411 -22 b 83 344 244 -22 83 94 b 411 717 83 594 244 717 b 710 344 578 717 710 594 l 710 319 l 192 319 b 411 79 192 194 272 79 b 597 214 550 79 583 158 l 706 200 b 411 -22 678 61 578 -22 m 601 414 b 411 615 601 497 550 615 b 192 414 272 615 192 497 m 350 1014 l 433 806 l 346 806 l 221 1014 "},"ē":{"ha":793,"x_min":0,"x_max":0,"o":"m 411 -22 b 83 344 244 -22 83 94 b 411 717 83 594 244 717 b 710 344 578 717 710 594 l 710 319 l 192 319 b 411 79 192 194 272 79 b 597 214 550 79 583 158 l 706 200 b 411 -22 678 61 578 -22 m 601 414 b 411 615 601 497 550 615 b 192 414 272 615 192 497 m 201 893 l 593 893 l 593 806 l 201 806 "},"ę":{"ha":793,"x_min":0,"x_max":0,"o":"m 490 -247 b 367 -124 410 -247 367 -190 b 415 -22 367 -83 383 -49 l 411 -22 b 83 344 244 -22 83 94 b 411 717 83 594 244 717 b 710 344 578 717 710 594 l 710 319 l 192 319 b 411 79 192 194 272 79 b 597 214 550 79 583 158 l 706 200 b 551 3 686 106 635 38 b 457 -107 485 -31 457 -69 b 500 -157 457 -137 479 -157 b 549 -107 521 -157 549 -149 l 628 -121 b 490 -247 628 -204 567 -247 m 601 414 b 411 615 601 497 550 615 b 192 414 272 615 192 497 "},"ẽ":{"ha":793,"x_min":0,"x_max":0,"o":"m 411 -22 b 83 344 244 -22 83 94 b 411 717 83 594 244 717 b 710 344 578 717 710 594 l 710 319 l 192 319 b 411 79 192 194 272 79 b 597 214 550 79 583 158 l 706 200 b 411 -22 678 61 578 -22 m 172 819 b 310 971 172 903 222 971 b 468 893 393 971 426 893 b 518 971 524 893 518 957 l 619 957 b 482 806 619 874 565 806 b 324 883 399 806 365 883 b 274 806 278 883 274 819 l 172 819 m 601 414 b 411 615 601 497 550 615 b 192 414 272 615 192 497 "},"ə":{"ha":793,"x_min":0,"x_max":0,"o":"m 382 717 b 710 350 549 717 710 600 b 382 -22 710 100 549 -22 b 83 350 215 -22 83 100 l 83 375 l 601 375 b 382 615 601 500 521 615 b 196 481 243 615 210 536 l 88 494 b 382 717 115 633 215 717 m 192 281 b 382 79 192 197 243 79 b 601 281 521 79 601 197 l 192 281 "},"f":{"ha":497,"x_min":0,"x_max":0,"o":"m 174 772 b 360 986 174 935 240 986 l 456 986 l 456 885 l 376 885 b 275 743 301 885 275 871 l 275 694 l 456 694 l 456 593 l 275 593 l 275 0 l 174 0 l 174 593 l 56 593 l 56 694 l 174 694 l 174 772 "},"g":{"ha":846,"x_min":0,"x_max":0,"o":"m 406 -300 b 104 -85 183 -300 104 -161 l 213 -71 b 406 -199 213 -106 267 -199 b 619 26 544 -199 619 -140 l 619 153 b 392 -22 599 54 521 -22 b 83 347 197 -22 83 153 b 392 717 83 542 197 717 b 619 542 521 717 599 640 l 619 694 l 721 694 l 721 26 b 406 -300 721 -196 628 -300 m 192 347 b 406 79 192 167 294 79 b 619 347 517 79 619 167 b 406 615 619 528 517 615 b 192 347 286 615 192 528 "},"ğ":{"ha":846,"x_min":0,"x_max":0,"o":"m 406 -300 b 104 -85 183 -300 104 -161 l 213 -71 b 406 -199 213 -106 267 -199 b 619 26 544 -199 619 -140 l 619 153 b 392 -22 599 54 521 -22 b 83 347 197 -22 83 153 b 392 717 83 542 197 717 b 619 542 521 717 599 640 l 619 694 l 721 694 l 721 26 b 406 -300 721 -196 628 -300 m 192 347 b 406 79 192 167 294 79 b 619 347 517 79 619 167 b 406 615 619 528 517 615 b 192 347 286 615 192 528 m 310 1014 b 429 894 311 947 364 894 b 549 1014 494 894 547 947 l 638 1014 b 429 806 638 897 544 806 b 221 1014 313 806 221 897 "},"ĝ":{"ha":846,"x_min":0,"x_max":0,"o":"m 406 -300 b 104 -85 183 -300 104 -161 l 213 -71 b 406 -199 213 -106 267 -199 b 619 26 544 -199 619 -140 l 619 153 b 392 -22 599 54 521 -22 b 83 347 197 -22 83 153 b 392 717 83 542 197 717 b 619 542 521 717 599 640 l 619 694 l 721 694 l 721 26 b 406 -300 721 -196 628 -300 m 192 347 b 406 79 192 167 294 79 b 619 347 517 79 619 167 b 406 615 619 528 517 615 b 192 347 286 615 192 528 m 338 1014 l 496 1014 l 593 806 l 506 806 l 417 958 l 328 806 l 240 806 "},"ģ":{"ha":846,"x_min":0,"x_max":0,"o":"m 406 -300 b 104 -85 183 -300 104 -161 l 213 -71 b 406 -199 213 -106 267 -199 b 619 26 544 -199 619 -140 l 619 153 b 392 -22 599 54 521 -22 b 83 347 197 -22 83 153 b 392 717 83 542 197 717 b 619 542 521 717 599 640 l 619 694 l 721 694 l 721 26 b 406 -300 721 -196 628 -300 m 192 347 b 406 79 192 167 294 79 b 619 347 517 79 619 167 b 406 615 619 528 517 615 b 192 347 286 615 192 528 m 354 917 b 507 1053 354 1025 404 1053 l 507 993 b 426 917 432 993 426 972 l 493 917 l 493 806 l 354 806 "},"ġ":{"ha":846,"x_min":0,"x_max":0,"o":"m 406 -300 b 104 -85 183 -300 104 -161 l 213 -71 b 406 -199 213 -106 267 -199 b 619 26 544 -199 619 -140 l 619 153 b 392 -22 599 54 521 -22 b 83 347 197 -22 83 153 b 392 717 83 542 197 717 b 619 542 521 717 599 640 l 619 694 l 721 694 l 721 26 b 406 -300 721 -196 628 -300 m 192 347 b 406 79 192 167 294 79 b 619 347 517 79 619 167 b 406 615 619 528 517 615 b 192 347 286 615 192 528 m 365 936 l 496 936 l 496 806 l 365 806 "},"ḡ":{"ha":846,"x_min":0,"x_max":0,"o":"m 406 -300 b 104 -85 183 -300 104 -161 l 213 -71 b 406 -199 213 -106 267 -199 b 619 26 544 -199 619 -140 l 619 153 b 392 -22 599 54 521 -22 b 83 347 197 -22 83 153 b 392 717 83 542 197 717 b 619 542 521 717 599 640 l 619 694 l 721 694 l 721 26 b 406 -300 721 -196 628 -300 m 192 347 b 406 79 192 167 294 79 b 619 347 517 79 619 167 b 406 615 619 528 517 615 b 192 347 286 615 192 528 m 235 893 l 626 893 l 626 806 l 235 806 "},"h":{"ha":776,"x_min":0,"x_max":0,"o":"m 557 457 b 414 615 557 582 497 615 b 219 324 331 615 219 560 l 219 0 l 111 0 l 111 972 l 219 972 l 219 544 b 449 717 242 640 321 717 b 665 457 601 717 665 610 l 665 0 l 557 0 l 557 457 "},"ħ":{"ha":776,"x_min":0,"x_max":0,"o":"m 0 875 l 111 875 l 111 972 l 219 972 l 219 875 l 483 875 l 483 803 l 219 803 l 219 544 b 449 717 242 640 321 717 b 665 457 601 717 665 610 l 665 0 l 557 0 l 557 457 b 414 615 557 582 497 615 b 219 324 331 615 219 560 l 219 0 l 111 0 l 111 803 l 0 803 "},"ĥ":{"ha":746,"x_min":0,"x_max":0,"o":"m 526 457 b 383 615 526 582 467 615 b 189 324 300 615 189 560 l 189 0 l 81 0 l 81 972 l 189 972 l 189 544 b 418 717 211 640 290 717 b 635 457 571 717 635 610 l 635 0 l 526 0 l 526 457 m 56 1292 l 214 1292 l 311 1083 l 224 1083 l 135 1236 l 46 1083 l -42 1083 "},"i":{"ha":353,"x_min":0,"x_max":0,"o":"m 122 694 l 231 694 l 231 0 l 122 0 m 111 936 l 242 936 l 242 806 l 111 806 "},"ı":{"ha":331,"x_min":0,"x_max":0,"o":"m 111 694 l 219 694 l 219 0 l 111 0 "},"í":{"ha":340,"x_min":0,"x_max":0,"o":"m 211 1014 l 340 1014 l 215 806 l 128 806 m 111 694 l 219 694 l 219 0 l 111 0 "},"ĭ":{"ha":250,"x_min":0,"x_max":0,"o":"m 125 806 b -42 1014 8 806 -42 897 l 47 1014 b 125 894 49 933 74 894 b 203 1014 176 894 201 933 l 292 1014 b 125 806 292 897 240 806 m 71 694 l 179 694 l 179 0 l 71 0 "},"î":{"ha":331,"x_min":0,"x_max":0,"o":"m 111 694 l 219 694 l 219 0 l 111 0 m 86 1014 l 244 1014 l 342 806 l 254 806 l 165 958 l 76 806 l -11 806 "},"ï":{"ha":331,"x_min":0,"x_max":0,"o":"m 111 694 l 219 694 l 219 0 l 111 0 m -7 931 l 118 931 l 118 806 l -7 806 m 213 931 l 338 931 l 338 806 l 213 806 "},"ì":{"ha":342,"x_min":0,"x_max":0,"o":"m 122 694 l 231 694 l 231 0 l 122 0 m 129 1014 l 213 806 l 125 806 l 0 1014 "},"ĳ":{"ha":735,"x_min":0,"x_max":0,"o":"m 122 694 l 231 694 l 231 0 l 122 0 m 111 936 l 242 936 l 242 806 l 111 806 m 310 -176 l 389 -176 b 490 -76 464 -176 490 -162 l 490 694 l 599 694 l 599 -106 b 406 -278 599 -226 525 -278 l 310 -278 m 479 936 l 610 936 l 610 806 l 479 806 "},"ī":{"ha":331,"x_min":0,"x_max":0,"o":"m 111 694 l 219 694 l 219 0 l 111 0 m -31 893 l 361 893 l 361 806 l -31 806 "},"į":{"ha":331,"x_min":0,"x_max":0,"o":"m 94 936 l 225 936 l 225 806 l 94 806 m 42 -124 b 124 0 42 -71 71 -28 l 103 0 l 103 694 l 211 694 l 211 0 b 132 -107 161 -28 132 -68 b 175 -157 132 -137 154 -157 b 224 -107 196 -157 224 -149 l 303 -121 b 165 -247 303 -204 242 -247 b 42 -124 85 -247 42 -190 "},"ĩ":{"ha":336,"x_min":0,"x_max":0,"o":"m 114 694 l 222 694 l 222 0 l 114 0 m -56 819 b 82 971 -56 903 -6 971 b 240 893 165 971 199 893 b 290 971 296 893 290 957 l 392 957 b 254 806 392 874 338 806 b 96 883 171 806 138 883 b 46 806 50 883 46 819 l -56 819 "},"j":{"ha":383,"x_min":0,"x_max":0,"o":"m -42 -176 l 38 -176 b 139 -76 113 -176 139 -162 l 139 694 l 247 694 l 247 -106 b 54 -278 247 -226 174 -278 l -42 -278 m 128 936 l 258 936 l 258 806 l 128 806 "},"ȷ":{"ha":372,"x_min":0,"x_max":0,"o":"m -42 -176 l 38 -176 b 139 -76 113 -176 139 -162 l 139 694 l 247 694 l 247 -106 b 54 -278 247 -226 174 -278 l -42 -278 "},"ĵ":{"ha":369,"x_min":0,"x_max":0,"o":"m -42 -176 l 38 -176 b 139 -76 113 -176 139 -162 l 139 694 l 247 694 l 247 -106 b 54 -278 247 -226 174 -278 l -42 -278 m 114 1014 l 272 1014 l 369 806 l 282 806 l 193 958 l 104 806 l 17 806 "},"k":{"ha":714,"x_min":0,"x_max":0,"o":"m 213 0 l 111 0 l 111 972 l 213 972 l 213 357 l 535 694 l 663 694 l 414 429 l 672 0 l 550 0 l 343 353 l 213 214 "},"ķ":{"ha":714,"x_min":0,"x_max":0,"o":"m 213 0 l 111 0 l 111 972 l 213 972 l 213 357 l 535 694 l 663 694 l 414 429 l 672 0 l 550 0 l 343 353 l 213 214 m 288 -285 b 368 -208 363 -285 368 -264 l 301 -208 l 301 -97 l 440 -97 l 440 -208 b 288 -344 440 -317 390 -344 "},"l":{"ha":358,"x_min":0,"x_max":0,"o":"m 125 986 l 233 986 l 233 0 l 125 0 "},"ĺ":{"ha":354,"x_min":0,"x_max":0,"o":"m 125 986 l 233 986 l 233 0 l 125 0 m 211 1292 l 340 1292 l 215 1083 l 128 1083 "},"ľ":{"ha":442,"x_min":0,"x_max":0,"o":"m 125 986 l 233 986 l 233 0 l 125 0 m 331 797 b 411 874 406 797 411 818 l 344 874 l 344 985 l 483 985 l 483 874 b 331 738 483 765 433 738 "},"ļ":{"ha":396,"x_min":0,"x_max":0,"o":"m 147 986 l 256 986 l 256 0 l 147 0 m 118 -285 b 199 -208 193 -285 199 -264 l 132 -208 l 132 -97 l 271 -97 l 271 -208 b 118 -344 271 -317 221 -344 "},"ŀ":{"ha":531,"x_min":0,"x_max":0,"o":"m 125 986 l 233 986 l 233 0 l 125 0 m 358 700 l 489 700 l 489 569 l 358 569 "},"ł":{"ha":500,"x_min":0,"x_max":0,"o":"m 56 458 l 196 529 l 196 986 l 304 986 l 304 583 l 444 654 l 444 568 l 304 497 l 304 0 l 196 0 l 196 443 l 56 372 "},"m":{"ha":1222,"x_min":0,"x_max":0,"o":"m 1003 457 b 860 615 1003 582 943 615 b 665 379 776 615 665 560 l 665 0 l 557 0 l 557 457 b 414 615 557 582 497 615 b 219 324 331 615 219 560 l 219 0 l 111 0 l 111 694 l 219 694 l 219 544 b 449 717 242 640 321 717 b 654 557 565 717 629 654 b 894 717 682 643 769 717 b 1111 457 1047 717 1111 610 l 1111 0 l 1003 0 l 1003 457 "},"n":{"ha":776,"x_min":0,"x_max":0,"o":"m 557 457 b 414 615 557 582 497 615 b 219 324 331 615 219 560 l 219 0 l 111 0 l 111 694 l 219 694 l 219 544 b 449 717 242 640 321 717 b 665 457 601 717 665 610 l 665 0 l 557 0 l 557 457 "},"ń":{"ha":776,"x_min":0,"x_max":0,"o":"m 557 457 b 414 615 557 582 497 615 b 219 324 331 615 219 560 l 219 0 l 111 0 l 111 694 l 219 694 l 219 544 b 449 717 242 640 321 717 b 665 457 601 717 665 610 l 665 0 l 557 0 l 557 457 m 435 1014 l 564 1014 l 439 806 l 351 806 "},"ŉ":{"ha":874,"x_min":0,"x_max":0,"o":"m 654 457 b 511 615 654 582 594 615 b 317 324 428 615 317 560 l 317 0 l 208 0 l 208 694 l 317 694 l 317 544 b 546 717 339 640 418 717 b 763 457 699 717 763 610 l 763 0 l 654 0 l 654 457 m 0 797 b 81 874 75 797 81 818 l 14 874 l 14 985 l 153 985 l 153 874 b 0 738 153 765 103 738 "},"ň":{"ha":776,"x_min":0,"x_max":0,"o":"m 557 457 b 414 615 557 582 497 615 b 219 324 331 615 219 560 l 219 0 l 111 0 l 111 694 l 219 694 l 219 544 b 449 717 242 640 321 717 b 665 457 601 717 665 610 l 665 0 l 557 0 l 557 457 m 300 1014 l 389 861 l 478 1014 l 565 1014 l 468 806 l 310 806 l 213 1014 "},"ņ":{"ha":776,"x_min":0,"x_max":0,"o":"m 557 457 b 414 615 557 582 497 615 b 219 324 331 615 219 560 l 219 0 l 111 0 l 111 694 l 219 694 l 219 544 b 449 717 242 640 321 717 b 665 457 601 717 665 610 l 665 0 l 557 0 l 557 457 m 313 -285 b 393 -208 388 -285 393 -264 l 326 -208 l 326 -97 l 465 -97 l 465 -208 b 313 -344 465 -317 415 -344 "},"ñ":{"ha":776,"x_min":0,"x_max":0,"o":"m 557 457 b 414 615 557 582 497 615 b 219 324 331 615 219 560 l 219 0 l 111 0 l 111 694 l 219 694 l 219 544 b 449 717 242 640 321 717 b 665 457 601 717 665 610 l 665 0 l 557 0 l 557 457 m 164 819 b 301 971 164 903 214 971 b 460 893 385 971 418 893 b 510 971 515 893 510 957 l 611 957 b 474 806 611 874 557 806 b 315 883 390 806 357 883 b 265 806 269 883 265 819 l 164 819 "},"ŋ":{"ha":790,"x_min":0,"x_max":0,"o":"m 376 -176 l 456 -176 b 557 -76 531 -176 557 -162 l 557 457 b 414 615 557 582 497 615 b 219 324 331 615 219 560 l 219 0 l 111 0 l 111 694 l 219 694 l 219 544 b 449 717 242 640 321 717 b 665 457 601 717 665 610 l 665 -106 b 472 -278 665 -226 592 -278 l 376 -278 "},"o":{"ha":821,"x_min":0,"x_max":0,"o":"m 411 -22 b 83 344 244 -22 83 94 b 411 717 83 594 244 717 b 738 344 578 717 738 594 b 411 -22 738 94 578 -22 m 192 344 b 411 79 192 192 258 79 b 631 344 564 79 631 192 b 411 615 631 497 564 615 b 192 344 258 615 192 497 "},"ó":{"ha":821,"x_min":0,"x_max":0,"o":"m 411 -22 b 83 344 244 -22 83 94 b 411 717 83 594 244 717 b 738 344 578 717 738 594 b 411 -22 738 94 578 -22 m 192 344 b 411 79 192 192 258 79 b 631 344 564 79 631 192 b 411 615 631 497 564 615 b 192 344 258 615 192 497 m 457 1014 l 586 1014 l 461 806 l 374 806 "},"ŏ":{"ha":821,"x_min":0,"x_max":0,"o":"m 411 -22 b 83 344 244 -22 83 94 b 411 717 83 594 244 717 b 738 344 578 717 738 594 b 411 -22 738 94 578 -22 m 192 344 b 411 79 192 192 258 79 b 631 344 564 79 631 192 b 411 615 631 497 564 615 b 192 344 258 615 192 497 m 292 1014 b 411 894 293 947 346 894 b 531 1014 476 894 529 947 l 619 1014 b 411 806 619 897 526 806 b 203 1014 294 806 203 897 "},"ô":{"ha":821,"x_min":0,"x_max":0,"o":"m 411 -22 b 83 344 244 -22 83 94 b 411 717 83 594 244 717 b 738 344 578 717 738 594 b 411 -22 738 94 578 -22 m 192 344 b 411 79 192 192 258 79 b 631 344 564 79 631 192 b 411 615 631 497 564 615 b 192 344 258 615 192 497 m 332 1014 l 490 1014 l 588 806 l 500 806 l 411 958 l 322 806 l 235 806 "},"ö":{"ha":821,"x_min":0,"x_max":0,"o":"m 411 -22 b 83 344 244 -22 83 94 b 411 717 83 594 244 717 b 738 344 578 717 738 594 b 411 -22 738 94 578 -22 m 192 344 b 411 79 192 192 258 79 b 631 344 564 79 631 192 b 411 615 631 497 564 615 b 192 344 258 615 192 497 m 239 931 l 364 931 l 364 806 l 239 806 m 458 931 l 583 931 l 583 806 l 458 806 "},"ò":{"ha":821,"x_min":0,"x_max":0,"o":"m 411 -22 b 83 344 244 -22 83 94 b 411 717 83 594 244 717 b 738 344 578 717 738 594 b 411 -22 738 94 578 -22 m 192 344 b 411 79 192 192 258 79 b 631 344 564 79 631 192 b 411 615 631 497 564 615 b 192 344 258 615 192 497 m 364 1014 l 447 806 l 360 806 l 235 1014 "},"ő":{"ha":821,"x_min":0,"x_max":0,"o":"m 411 -22 b 83 344 244 -22 83 94 b 411 717 83 594 244 717 b 738 344 578 717 738 594 b 411 -22 738 94 578 -22 m 192 344 b 411 79 192 192 258 79 b 631 344 564 79 631 192 b 411 615 631 497 564 615 b 192 344 258 615 192 497 m 351 1014 l 481 1014 l 356 806 l 268 806 m 564 1014 l 693 1014 l 568 806 l 481 806 "},"ō":{"ha":821,"x_min":0,"x_max":0,"o":"m 411 -22 b 83 344 244 -22 83 94 b 411 717 83 594 244 717 b 738 344 578 717 738 594 b 411 -22 738 94 578 -22 m 192 344 b 411 79 192 192 258 79 b 631 344 564 79 631 192 b 411 615 631 497 564 615 b 192 344 258 615 192 497 m 215 893 l 607 893 l 607 806 l 215 806 "},"ø":{"ha":849,"x_min":0,"x_max":0,"o":"m 169 100 b 97 344 125 160 97 240 b 425 717 97 594 258 717 b 618 653 494 717 563 696 l 726 786 l 835 786 l 678 593 b 751 344 724 532 751 450 b 425 -22 751 94 592 -22 b 229 40 356 -22 286 -1 l 122 -92 l 14 -92 m 206 344 b 239 185 206 283 217 229 l 556 575 b 425 615 522 600 479 615 b 206 344 272 615 206 497 m 293 119 b 425 79 326 93 371 79 b 644 344 578 79 644 192 b 610 508 644 407 633 464 l 293 119 "},"ǿ":{"ha":932,"x_min":0,"x_max":0,"o":"m 211 100 b 139 344 167 160 139 240 b 467 717 139 594 300 717 b 660 653 536 717 604 696 l 768 786 l 876 786 l 719 593 b 793 344 765 532 793 450 b 467 -22 793 94 633 -22 b 271 40 397 -22 328 -1 l 164 -92 l 56 -92 m 247 344 b 281 185 247 283 258 229 l 597 575 b 467 615 564 600 521 615 b 247 344 314 615 247 497 m 335 119 b 467 79 368 93 413 79 b 686 344 619 79 686 192 b 651 508 686 407 675 464 l 335 119 m 513 1014 l 642 1014 l 517 806 l 429 806 "},"õ":{"ha":821,"x_min":0,"x_max":0,"o":"m 411 -22 b 83 344 244 -22 83 94 b 411 717 83 594 244 717 b 738 344 578 717 738 594 b 411 -22 738 94 578 -22 m 186 819 b 324 971 186 903 236 971 b 482 893 407 971 440 893 b 532 971 538 893 532 957 l 633 957 b 496 806 633 874 579 806 b 338 883 413 806 379 883 b 288 806 292 883 288 819 l 186 819 m 192 344 b 411 79 192 192 258 79 b 631 344 564 79 631 192 b 411 615 631 497 564 615 b 192 344 258 615 192 497 "},"œ":{"ha":1340,"x_min":0,"x_max":0,"o":"m 411 -22 b 83 344 244 -22 83 94 b 411 717 83 594 244 717 b 685 563 519 717 624 665 b 958 717 746 665 850 717 b 1257 344 1125 717 1257 594 l 1257 319 l 739 319 b 958 79 739 194 819 79 b 1144 214 1097 79 1131 158 l 1253 200 b 958 -22 1225 61 1125 -22 b 685 128 850 -22 746 26 b 411 -22 624 26 519 -22 m 192 344 b 411 79 192 192 258 79 b 631 344 564 79 631 192 b 411 615 631 497 564 615 b 192 344 258 615 192 497 m 1149 414 b 958 615 1149 497 1097 615 b 739 414 819 615 739 497 "},"p":{"ha":846,"x_min":0,"x_max":0,"o":"m 454 -22 b 226 147 328 -22 249 51 l 226 -278 l 125 -278 l 125 694 l 226 694 l 226 547 b 454 717 249 643 328 717 b 763 347 649 717 763 542 b 454 -22 763 153 649 -22 m 226 347 b 440 79 226 167 329 79 b 654 347 551 79 654 167 b 440 615 654 528 560 615 b 226 347 329 615 226 528 "},"þ":{"ha":846,"x_min":0,"x_max":0,"o":"m 440 79 b 654 339 560 79 654 144 b 440 615 654 535 560 615 b 226 339 321 615 226 507 b 440 79 226 172 321 79 m 125 972 l 226 972 l 226 546 b 440 717 249 640 324 717 b 763 339 668 717 763 540 b 440 -22 763 139 653 -22 b 226 133 324 -22 249 43 l 226 -278 l 125 -278 "},"q":{"ha":846,"x_min":0,"x_max":0,"o":"m 378 -22 b 83 347 183 -22 83 153 b 378 717 83 542 183 717 b 619 543 507 717 594 642 l 619 694 l 721 694 l 721 -278 l 619 -278 l 619 151 b 378 -22 594 53 507 -22 m 192 347 b 406 79 192 167 294 79 b 619 347 517 79 619 167 b 406 615 619 528 517 615 b 192 347 286 615 192 528 "},"r":{"ha":529,"x_min":0,"x_max":0,"o":"m 111 694 l 219 694 l 219 543 b 415 694 247 638 326 694 l 501 694 l 501 593 l 415 593 b 219 317 299 593 219 514 l 219 0 l 111 0 "},"ŕ":{"ha":529,"x_min":0,"x_max":0,"o":"m 111 694 l 219 694 l 219 543 b 415 694 247 638 326 694 l 501 694 l 501 593 l 415 593 b 219 317 299 593 219 514 l 219 0 l 111 0 m 339 1014 l 468 1014 l 343 806 l 256 806 "},"ř":{"ha":529,"x_min":0,"x_max":0,"o":"m 111 694 l 219 694 l 219 543 b 415 694 247 638 326 694 l 501 694 l 501 593 l 415 593 b 219 317 299 593 219 514 l 219 0 l 111 0 m 203 1014 l 292 861 l 381 1014 l 468 1014 l 371 806 l 213 806 l 115 1014 "},"ŗ":{"ha":546,"x_min":0,"x_max":0,"o":"m 128 694 l 236 694 l 236 543 b 432 694 264 638 343 694 l 518 694 l 518 593 l 432 593 b 236 317 315 593 236 514 l 236 0 l 128 0 m 97 -285 b 178 -208 172 -285 178 -264 l 111 -208 l 111 -97 l 250 -97 l 250 -208 b 97 -344 250 -317 200 -344 "},"s":{"ha":726,"x_min":0,"x_max":0,"o":"m 375 -22 b 69 257 208 -22 69 76 l 171 271 b 375 79 171 146 278 79 b 549 194 472 79 549 111 b 415 311 549 278 494 300 l 293 328 b 108 515 183 343 108 418 b 368 717 108 640 215 717 b 618 501 521 717 618 626 l 517 488 b 368 615 517 571 465 615 b 217 515 285 615 217 585 b 336 422 217 460 254 435 l 442 407 b 657 194 564 389 657 319 b 375 -22 657 69 542 -22 "},"ś":{"ha":726,"x_min":0,"x_max":0,"o":"m 375 -22 b 69 257 208 -22 69 76 l 171 271 b 375 79 171 146 278 79 b 549 194 472 79 549 111 b 415 311 549 278 494 300 l 293 328 b 108 515 183 343 108 418 b 368 717 108 640 215 717 b 618 501 521 717 618 626 l 517 488 b 368 615 517 571 465 615 b 217 515 285 615 217 585 b 336 422 217 460 254 435 l 442 407 b 657 194 564 389 657 319 b 375 -22 657 69 542 -22 m 399 1014 l 528 1014 l 403 806 l 315 806 "},"š":{"ha":726,"x_min":0,"x_max":0,"o":"m 375 -22 b 69 257 208 -22 69 76 l 171 271 b 375 79 171 146 278 79 b 549 194 472 79 549 111 b 415 311 549 278 494 300 l 293 328 b 108 515 183 343 108 418 b 368 717 108 640 215 717 b 618 501 521 717 618 626 l 517 488 b 368 615 517 571 465 615 b 217 515 285 615 217 585 b 336 422 217 460 254 435 l 442 407 b 657 194 564 389 657 319 b 375 -22 657 69 542 -22 m 275 1014 l 364 861 l 453 1014 l 540 1014 l 443 806 l 285 806 l 188 1014 "},"ş":{"ha":726,"x_min":0,"x_max":0,"o":"m 381 -300 b 257 -201 318 -300 264 -262 l 336 -187 b 381 -224 340 -210 357 -224 b 428 -176 408 -224 428 -204 b 381 -131 428 -149 408 -131 b 340 -154 361 -131 347 -139 l 269 -122 l 306 -17 b 69 257 172 7 69 103 l 171 271 b 375 79 171 146 278 79 b 549 194 472 79 549 111 b 415 311 549 278 494 300 l 293 328 b 108 515 183 343 108 418 b 368 717 108 640 215 717 b 618 501 521 717 618 626 l 517 488 b 368 615 517 571 465 615 b 217 515 285 615 217 585 b 336 422 217 460 254 435 l 442 407 b 657 194 564 389 657 319 b 386 -22 657 72 547 -18 l 375 -53 l 381 -53 b 504 -176 447 -53 504 -110 b 381 -300 504 -243 447 -300 "},"ŝ":{"ha":726,"x_min":0,"x_max":0,"o":"m 375 -22 b 69 257 208 -22 69 76 l 171 271 b 375 79 171 146 278 79 b 549 194 472 79 549 111 b 415 311 549 278 494 300 l 293 328 b 108 515 183 343 108 418 b 368 717 108 640 215 717 b 618 501 521 717 618 626 l 517 488 b 368 615 517 571 465 615 b 217 515 285 615 217 585 b 336 422 217 460 254 435 l 442 407 b 657 194 564 389 657 319 b 375 -22 657 69 542 -22 m 283 1014 l 442 1014 l 539 806 l 451 806 l 363 958 l 274 806 l 186 806 "},"ș":{"ha":726,"x_min":0,"x_max":0,"o":"m 375 -22 b 69 257 208 -22 69 76 l 171 271 b 375 79 171 146 278 79 b 549 194 472 79 549 111 b 415 311 549 278 494 300 l 293 328 b 108 515 183 343 108 418 b 368 717 108 640 215 717 b 618 501 521 717 618 626 l 517 488 b 368 615 517 571 465 615 b 217 515 285 615 217 585 b 336 422 217 460 254 435 l 442 407 b 657 194 564 389 657 319 b 375 -22 657 69 542 -22 m 281 -285 b 361 -208 356 -285 361 -264 l 294 -208 l 294 -97 l 433 -97 l 433 -208 b 281 -344 433 -317 383 -344 "},"ß":{"ha":906,"x_min":0,"x_max":0,"o":"m 400 106 l 469 106 b 711 279 594 104 711 154 b 469 453 711 404 594 453 l 400 453 l 400 558 l 463 558 b 678 728 585 558 678 625 b 463 893 678 826 585 893 b 233 667 344 893 233 833 l 233 0 l 125 0 l 125 667 b 463 994 125 889 288 994 b 786 728 642 994 786 875 b 658 513 786 656 750 561 b 822 279 765 479 822 401 b 469 0 822 113 706 0 l 400 0 "},"t":{"ha":532,"x_min":0,"x_max":0,"o":"m 353 0 b 174 172 233 0 174 51 l 174 593 l 56 593 l 56 694 l 174 694 l 174 904 l 268 918 l 268 694 l 449 694 l 449 593 l 268 593 l 268 201 b 369 101 268 115 301 101 l 449 101 l 449 0 l 353 0 "},"ŧ":{"ha":532,"x_min":0,"x_max":0,"o":"m 56 439 l 174 439 l 174 593 l 56 593 l 56 694 l 174 694 l 174 904 l 268 918 l 268 694 l 449 694 l 449 593 l 268 593 l 268 439 l 449 439 l 449 338 l 268 338 l 268 201 b 369 101 268 115 301 101 l 449 101 l 449 0 l 353 0 b 174 172 233 0 174 51 l 174 338 l 56 338 "},"ť":{"ha":564,"x_min":0,"x_max":0,"o":"m 353 0 b 174 172 233 0 174 51 l 174 593 l 56 593 l 56 694 l 174 694 l 174 904 l 268 918 l 268 694 l 449 694 l 449 593 l 268 593 l 268 201 b 369 101 268 115 301 101 l 449 101 l 449 0 l 353 0 m 494 797 b 575 874 569 797 575 818 l 508 874 l 508 985 l 647 985 l 647 874 b 494 738 647 765 597 738 "},"ţ":{"ha":532,"x_min":0,"x_max":0,"o":"m 325 1 l 306 -53 l 311 -53 b 435 -176 378 -53 435 -110 b 311 -300 435 -243 378 -300 b 188 -201 249 -300 194 -262 l 267 -187 b 311 -224 271 -210 288 -224 b 358 -176 339 -224 358 -204 b 311 -131 358 -149 339 -131 b 271 -154 292 -131 278 -139 l 200 -122 l 249 19 b 174 172 199 44 174 94 l 174 593 l 56 593 l 56 694 l 174 694 l 174 904 l 268 918 l 268 694 l 449 694 l 449 593 l 268 593 l 268 201 b 369 101 268 115 301 101 l 449 101 l 449 0 l 353 0 "},"ț":{"ha":532,"x_min":0,"x_max":0,"o":"m 353 0 b 174 172 233 0 174 51 l 174 593 l 56 593 l 56 694 l 174 694 l 174 904 l 268 918 l 268 694 l 449 694 l 449 593 l 268 593 l 268 201 b 369 101 268 115 301 101 l 449 101 l 449 0 l 353 0 m 214 -285 b 294 -208 289 -285 294 -264 l 228 -208 l 228 -97 l 367 -97 l 367 -208 b 214 -344 367 -317 317 -344 "},"u":{"ha":776,"x_min":0,"x_max":0,"o":"m 328 -22 b 111 238 175 -22 111 85 l 111 694 l 219 694 l 219 238 b 363 79 219 113 279 79 b 557 371 446 79 557 135 l 557 694 l 665 694 l 665 0 l 557 0 l 557 150 b 328 -22 535 54 456 -22 "},"ú":{"ha":776,"x_min":0,"x_max":0,"o":"m 328 -22 b 111 238 175 -22 111 85 l 111 694 l 219 694 l 219 238 b 363 79 219 113 279 79 b 557 371 446 79 557 135 l 557 694 l 665 694 l 665 0 l 557 0 l 557 150 b 328 -22 535 54 456 -22 m 435 1014 l 564 1014 l 439 806 l 351 806 "},"ŭ":{"ha":776,"x_min":0,"x_max":0,"o":"m 328 -22 b 111 238 175 -22 111 85 l 111 694 l 219 694 l 219 238 b 363 79 219 113 279 79 b 557 371 446 79 557 135 l 557 694 l 665 694 l 665 0 l 557 0 l 557 150 b 328 -22 535 54 456 -22 m 268 1014 b 388 894 269 947 322 894 b 507 1014 453 894 506 947 l 596 1014 b 388 806 596 897 503 806 b 179 1014 271 806 179 897 "},"û":{"ha":776,"x_min":0,"x_max":0,"o":"m 328 -22 b 111 238 175 -22 111 85 l 111 694 l 219 694 l 219 238 b 363 79 219 113 279 79 b 557 371 446 79 557 135 l 557 694 l 665 694 l 665 0 l 557 0 l 557 150 b 328 -22 535 54 456 -22 m 310 1014 l 468 1014 l 565 806 l 478 806 l 389 958 l 300 806 l 213 806 "},"ü":{"ha":776,"x_min":0,"x_max":0,"o":"m 328 -22 b 111 238 175 -22 111 85 l 111 694 l 219 694 l 219 238 b 363 79 219 113 279 79 b 557 371 446 79 557 135 l 557 694 l 665 694 l 665 0 l 557 0 l 557 150 b 328 -22 535 54 456 -22 m 217 931 l 342 931 l 342 806 l 217 806 m 436 931 l 561 931 l 561 806 l 436 806 "},"ù":{"ha":776,"x_min":0,"x_max":0,"o":"m 328 -22 b 111 238 175 -22 111 85 l 111 694 l 219 694 l 219 238 b 363 79 219 113 279 79 b 557 371 446 79 557 135 l 557 694 l 665 694 l 665 0 l 557 0 l 557 150 b 328 -22 535 54 456 -22 m 342 1014 l 425 806 l 338 806 l 213 1014 "},"ű":{"ha":782,"x_min":0,"x_max":0,"o":"m 328 -22 b 111 238 175 -22 111 85 l 111 694 l 219 694 l 219 238 b 363 79 219 113 279 79 b 557 371 446 79 557 135 l 557 694 l 665 694 l 665 0 l 557 0 l 557 150 b 328 -22 535 54 456 -22 m 329 1014 l 458 1014 l 333 806 l 246 806 m 542 1014 l 671 1014 l 546 806 l 458 806 "},"ū":{"ha":776,"x_min":0,"x_max":0,"o":"m 328 -22 b 111 238 175 -22 111 85 l 111 694 l 219 694 l 219 238 b 363 79 219 113 279 79 b 557 371 446 79 557 135 l 557 694 l 665 694 l 665 0 l 557 0 l 557 150 b 328 -22 535 54 456 -22 m 193 893 l 585 893 l 585 806 l 193 806 "},"ų":{"ha":868,"x_min":0,"x_max":0,"o":"m 328 -22 b 111 238 175 -22 111 85 l 111 694 l 219 694 l 219 238 b 363 79 219 113 279 79 b 557 371 446 79 557 135 l 557 694 l 665 694 l 665 0 b 586 -107 615 -28 586 -68 b 629 -157 586 -137 608 -157 b 678 -107 650 -157 678 -149 l 757 -121 b 619 -247 757 -204 696 -247 b 496 -124 539 -247 496 -190 b 578 0 496 -71 525 -28 l 557 0 l 557 150 b 328 -22 535 54 456 -22 "},"ů":{"ha":776,"x_min":0,"x_max":0,"o":"m 328 -22 b 111 238 175 -22 111 85 l 111 694 l 219 694 l 219 238 b 363 79 219 113 279 79 b 557 371 446 79 557 135 l 557 694 l 665 694 l 665 0 l 557 0 l 557 150 b 328 -22 535 54 456 -22 m 243 938 b 389 1083 243 1017 310 1083 b 535 938 468 1083 535 1017 b 389 792 535 858 468 792 b 243 938 310 792 243 858 m 333 938 b 389 882 333 906 357 882 b 444 938 421 882 444 906 b 389 993 444 969 421 993 b 333 938 357 993 333 969 "},"ũ":{"ha":776,"x_min":0,"x_max":0,"o":"m 328 -22 b 111 238 175 -22 111 85 l 111 694 l 219 694 l 219 238 b 363 79 219 113 279 79 b 557 371 446 79 557 135 l 557 694 l 665 694 l 665 0 l 557 0 l 557 150 b 328 -22 535 54 456 -22 m 164 819 b 301 971 164 903 214 971 b 460 893 385 971 418 893 b 510 971 515 893 510 957 l 611 957 b 474 806 611 874 557 806 b 315 883 390 806 357 883 b 265 806 269 883 265 819 l 164 819 "},"v":{"ha":681,"x_min":0,"x_max":0,"o":"m 28 694 l 129 694 l 335 118 l 551 694 l 653 694 l 392 0 l 275 0 "},"w":{"ha":1074,"x_min":0,"x_max":0,"o":"m 56 694 l 157 694 l 297 117 l 486 694 l 588 694 l 776 117 l 917 694 l 1018 694 l 849 0 l 719 0 l 538 560 l 354 0 l 225 0 "},"ẃ":{"ha":1074,"x_min":0,"x_max":0,"o":"m 56 694 l 157 694 l 297 117 l 486 694 l 588 694 l 776 117 l 917 694 l 1018 694 l 849 0 l 719 0 l 538 560 l 354 0 l 225 0 m 583 1014 l 713 1014 l 588 806 l 500 806 "},"ŵ":{"ha":1074,"x_min":0,"x_max":0,"o":"m 56 694 l 157 694 l 297 117 l 486 694 l 588 694 l 776 117 l 917 694 l 1018 694 l 849 0 l 719 0 l 538 560 l 354 0 l 225 0 m 457 1014 l 615 1014 l 713 806 l 625 806 l 536 958 l 447 806 l 360 806 "},"ẅ":{"ha":1074,"x_min":0,"x_max":0,"o":"m 56 694 l 157 694 l 297 117 l 486 694 l 588 694 l 776 117 l 917 694 l 1018 694 l 849 0 l 719 0 l 538 560 l 354 0 l 225 0 m 364 931 l 489 931 l 489 806 l 364 806 m 583 931 l 708 931 l 708 806 l 583 806 "},"ẁ":{"ha":1074,"x_min":0,"x_max":0,"o":"m 56 694 l 157 694 l 297 117 l 486 694 l 588 694 l 776 117 l 917 694 l 1018 694 l 849 0 l 719 0 l 538 560 l 354 0 l 225 0 m 490 1014 l 574 806 l 486 806 l 361 1014 "},"x":{"ha":707,"x_min":0,"x_max":0,"o":"m 354 267 l 164 0 l 42 0 l 293 353 l 49 694 l 171 694 l 354 438 l 536 694 l 658 694 l 415 353 l 665 0 l 543 0 "},"y":{"ha":728,"x_min":0,"x_max":0,"o":"m 310 0 l 28 694 l 136 694 l 364 133 l 592 694 l 700 694 l 306 -278 l 197 -278 "},"ý":{"ha":728,"x_min":0,"x_max":0,"o":"m 310 0 l 28 694 l 136 694 l 364 133 l 592 694 l 700 694 l 306 -278 l 197 -278 m 411 1014 l 540 1014 l 415 806 l 328 806 "},"ŷ":{"ha":728,"x_min":0,"x_max":0,"o":"m 285 1014 l 443 1014 l 540 806 l 453 806 l 364 958 l 275 806 l 188 806 m 136 694 l 364 133 l 592 694 l 700 694 l 306 -278 l 197 -278 l 310 0 l 28 694 "},"ÿ":{"ha":728,"x_min":0,"x_max":0,"o":"m 310 0 l 28 694 l 136 694 l 364 133 l 592 694 l 700 694 l 306 -278 l 197 -278 m 192 931 l 317 931 l 317 806 l 192 806 m 411 931 l 536 931 l 536 806 l 411 806 "},"ỳ":{"ha":728,"x_min":0,"x_max":0,"o":"m 189 1014 l 318 1014 l 401 806 l 314 806 m 136 694 l 364 133 l 592 694 l 700 694 l 306 -278 l 197 -278 l 310 0 l 28 694 "},"ỹ":{"ha":728,"x_min":0,"x_max":0,"o":"m 310 0 l 28 694 l 136 694 l 364 133 l 592 694 l 700 694 l 306 -278 l 197 -278 m 140 819 b 278 971 140 903 190 971 b 436 893 361 971 394 893 b 486 971 492 893 486 957 l 588 957 b 450 806 588 874 533 806 b 292 883 367 806 333 883 b 242 806 246 883 242 819 l 140 819 "},"z":{"ha":690,"x_min":0,"x_max":0,"o":"m 500 600 l 69 600 l 69 694 l 621 694 l 621 600 l 192 94 l 621 94 l 621 0 l 69 0 l 69 94 "},"ź":{"ha":690,"x_min":0,"x_max":0,"o":"m 500 600 l 69 600 l 69 694 l 621 694 l 621 600 l 192 94 l 621 94 l 621 0 l 69 0 l 69 94 m 392 1014 l 521 1014 l 396 806 l 308 806 "},"ž":{"ha":690,"x_min":0,"x_max":0,"o":"m 500 600 l 69 600 l 69 694 l 621 694 l 621 600 l 192 94 l 621 94 l 621 0 l 69 0 l 69 94 m 257 1014 l 346 861 l 435 1014 l 522 1014 l 425 806 l 267 806 l 169 1014 "},"ż":{"ha":690,"x_min":0,"x_max":0,"o":"m 500 600 l 69 600 l 69 694 l 621 694 l 621 600 l 192 94 l 621 94 l 621 0 l 69 0 l 69 94 m 279 936 l 410 936 l 410 806 l 279 806 "},"Δ":{"ha":1081,"x_min":0,"x_max":0,"o":"m 476 972 l 618 972 l 942 0 l 139 0 m 800 101 l 546 863 l 282 101 "},"Ω":{"ha":1083,"x_min":0,"x_max":0,"o":"m 56 103 l 322 103 b 86 547 208 189 86 322 b 542 994 86 797 264 994 b 997 547 819 994 997 797 b 761 103 997 322 875 189 l 1028 103 l 1028 0 l 625 0 l 625 103 b 889 547 792 242 888 367 b 542 893 890 728 764 893 b 194 547 319 893 194 728 b 458 103 194 367 292 242 l 458 0 l 56 0 "},"μ":{"ha":776,"x_min":0,"x_max":0,"o":"m 328 -22 b 219 1 285 -22 249 -14 l 219 -278 l 111 -278 l 111 694 l 219 694 l 219 238 b 363 79 219 113 279 79 b 557 371 446 79 557 135 l 557 694 l 665 694 l 665 0 l 557 0 l 557 150 b 328 -22 535 54 456 -22 "},"π":{"ha":986,"x_min":0,"x_max":0,"o":"m 793 0 b 614 172 674 0 614 51 l 614 607 l 358 607 l 358 0 l 250 0 l 250 607 l 111 607 l 111 694 l 861 694 l 861 607 l 722 607 l 722 201 b 810 101 722 115 742 101 l 861 101 l 861 0 l 793 0 "},"⓿":{"ha":1267,"x_min":0,"x_max":0,"o":"m 635 -36 b 111 486 346 -36 111 199 b 635 1008 111 774 346 1008 b 1156 486 921 1008 1156 774 b 635 -36 1156 199 921 -36 m 431 493 b 635 239 431 342 508 239 b 838 493 761 239 838 342 b 635 747 838 644 761 747 b 431 493 508 747 431 644 m 510 493 b 635 672 510 590 544 672 b 758 493 725 672 758 590 b 635 315 758 396 725 315 b 510 493 544 315 510 396 "},"❶":{"ha":1267,"x_min":0,"x_max":0,"o":"m 635 -36 b 111 486 346 -36 111 199 b 635 1008 111 774 346 1008 b 1156 486 921 1008 1156 774 b 635 -36 1156 199 921 -36 m 814 250 l 814 329 l 689 329 l 689 736 l 607 736 b 515 597 607 608 582 597 l 482 597 l 482 519 l 515 519 b 607 560 554 519 585 533 l 607 329 l 482 329 l 482 250 "},"❷":{"ha":1267,"x_min":0,"x_max":0,"o":"m 635 -36 b 111 486 346 -36 111 199 b 635 1008 111 774 346 1008 b 1156 486 921 1008 1156 774 b 635 -36 1156 199 921 -36 m 533 557 b 628 669 525 638 572 669 b 722 583 679 669 722 639 b 454 322 722 490 515 368 l 454 250 l 815 250 l 815 329 l 588 329 b 804 583 675 385 804 481 b 628 747 804 674 732 747 b 453 568 519 747 447 672 "},"❸":{"ha":1267,"x_min":0,"x_max":0,"o":"m 635 -36 b 111 486 346 -36 111 199 b 635 1008 111 774 346 1008 b 1156 486 921 1008 1156 774 b 635 -36 1156 199 921 -36 m 446 411 b 635 239 429 313 519 239 b 825 392 746 239 825 300 b 754 503 825 447 800 483 b 807 607 786 525 807 561 b 635 747 807 685 746 747 b 463 613 517 747 457 674 l 546 603 b 635 669 546 638 569 669 b 725 607 692 669 725 649 b 635 543 725 565 692 543 l 579 543 l 579 463 l 635 463 b 742 392 688 463 742 446 b 635 319 742 338 688 319 b 529 421 578 319 519 344 l 446 411 "},"❹":{"ha":1267,"x_min":0,"x_max":0,"o":"m 635 -36 b 111 486 346 -36 111 199 b 635 1008 111 774 346 1008 b 1156 486 921 1008 1156 774 b 635 -36 1156 199 921 -36 m 682 385 l 682 250 l 764 250 l 764 385 l 826 385 l 826 463 l 764 463 l 764 736 l 682 736 l 682 463 l 522 463 b 615 736 582 535 615 654 l 531 736 b 386 449 531 622 485 500 l 386 385 "},"❺":{"ha":1267,"x_min":0,"x_max":0,"o":"m 635 -36 b 111 486 346 -36 111 199 b 635 1008 111 774 346 1008 b 1156 486 921 1008 1156 774 b 635 -36 1156 199 921 -36 m 450 381 b 633 236 450 293 525 236 b 817 413 738 236 817 301 b 633 586 817 524 738 586 b 547 558 599 586 568 576 l 556 658 l 781 658 l 781 736 l 481 736 l 457 457 l 536 457 b 633 511 542 472 565 511 b 735 413 703 511 735 468 b 633 314 735 357 703 314 b 533 394 563 314 533 363 l 450 381 "},"❻":{"ha":1267,"x_min":0,"x_max":0,"o":"m 635 -36 b 111 486 346 -36 111 199 b 635 1008 111 774 346 1008 b 1156 486 921 1008 1156 774 b 635 -36 1156 199 921 -36 m 440 496 b 638 239 440 382 481 239 b 818 407 735 239 818 296 b 638 574 818 518 735 574 b 519 521 588 574 547 558 b 638 669 531 625 571 669 b 743 596 693 669 726 633 l 828 610 b 638 747 800 704 721 747 b 440 496 526 747 440 676 m 533 407 b 638 497 533 479 593 497 b 739 407 682 497 739 479 b 638 315 739 335 682 315 b 533 407 593 315 533 335 "},"❼":{"ha":1267,"x_min":0,"x_max":0,"o":"m 635 -36 b 111 486 346 -36 111 199 b 635 1008 111 774 346 1008 b 1156 486 921 1008 1156 774 b 635 -36 1156 199 921 -36 m 694 658 b 558 250 621 586 556 454 l 643 250 b 814 658 640 489 729 613 l 814 736 l 453 736 l 453 658 "},"❽":{"ha":1267,"x_min":0,"x_max":0,"o":"m 635 -36 b 111 486 346 -36 111 199 b 635 1008 111 774 346 1008 b 1156 486 921 1008 1156 774 b 635 -36 1156 199 921 -36 m 440 392 b 633 239 440 294 538 239 b 828 392 729 239 828 294 b 749 507 828 442 800 486 b 810 607 785 531 810 568 b 633 747 810 689 744 747 b 458 607 522 747 458 689 b 518 510 458 572 483 533 b 440 392 468 490 440 450 m 521 392 b 633 467 521 436 561 467 b 747 392 706 467 747 436 b 633 317 747 347 706 317 b 521 392 561 317 521 347 m 538 607 b 633 672 538 651 589 672 b 731 607 678 672 731 651 b 633 540 731 563 678 540 b 538 607 589 540 538 563 "},"❾":{"ha":1267,"x_min":0,"x_max":0,"o":"m 635 -36 b 111 486 346 -36 111 199 b 635 1008 111 774 346 1008 b 1156 486 921 1008 1156 774 b 635 -36 1156 199 921 -36 m 440 376 b 631 239 468 282 547 239 b 828 490 742 239 828 310 b 631 747 828 604 788 747 b 450 579 533 747 450 690 b 631 413 450 468 533 413 b 749 465 681 413 721 428 b 631 317 738 361 697 317 b 525 390 575 317 542 353 l 440 376 m 529 579 b 631 671 529 651 586 671 b 735 579 675 671 735 651 b 631 489 735 507 675 489 b 529 579 586 489 529 507 "},"⓪":{"ha":1239,"x_min":0,"x_max":0,"o":"m 621 239 b 417 493 494 239 417 342 b 621 747 417 644 494 747 b 824 493 747 747 824 644 b 621 239 824 342 747 239 m 111 486 b 621 994 111 767 339 994 b 1128 486 900 994 1128 767 b 621 -22 1128 206 900 -22 b 111 486 339 -22 111 206 m 200 486 b 621 67 200 256 389 67 b 1039 486 850 67 1039 256 b 621 906 1039 717 850 906 b 200 486 389 906 200 717 m 499 493 b 621 318 499 399 533 318 b 742 493 708 318 742 399 b 621 669 742 588 708 669 b 499 493 533 669 499 588 "},"①":{"ha":1239,"x_min":0,"x_max":0,"o":"m 468 329 l 593 329 l 593 560 b 501 519 571 533 540 519 l 468 519 l 468 597 l 501 597 b 593 736 568 597 593 608 l 675 736 l 675 329 l 800 329 l 800 250 l 468 250 m 111 486 b 621 994 111 767 339 994 b 1128 486 900 994 1128 767 b 621 -22 1128 206 900 -22 b 111 486 339 -22 111 206 m 200 486 b 621 67 200 256 389 67 b 1039 486 850 67 1039 256 b 621 906 1039 717 850 906 b 200 486 389 906 200 717 "},"②":{"ha":1239,"x_min":0,"x_max":0,"o":"m 440 322 b 708 583 501 368 708 490 b 614 669 708 639 665 669 b 519 557 558 669 511 638 l 439 568 b 614 747 433 672 506 747 b 790 583 718 747 790 674 b 574 329 790 481 661 385 l 801 329 l 801 250 l 440 250 l 440 322 m 111 486 b 621 994 111 767 339 994 b 1128 486 900 994 1128 767 b 621 -22 1128 206 900 -22 b 111 486 339 -22 111 206 m 200 486 b 621 67 200 256 389 67 b 1039 486 850 67 1039 256 b 621 906 1039 717 850 906 b 200 486 389 906 200 717 "},"③":{"ha":1239,"x_min":0,"x_max":0,"o":"m 621 239 b 432 411 506 239 415 313 l 515 421 b 621 319 506 344 564 319 b 728 392 674 319 728 338 b 621 463 728 446 674 463 l 565 463 l 565 543 l 621 543 b 711 607 678 543 711 565 b 621 669 711 649 678 669 b 532 603 556 669 532 638 l 449 613 b 621 747 443 674 503 747 b 793 607 732 747 793 685 b 740 503 793 561 772 525 b 811 392 786 483 811 447 b 621 239 811 300 732 239 m 111 486 b 621 994 111 767 339 994 b 1128 486 900 994 1128 767 b 621 -22 1128 206 900 -22 b 111 486 339 -22 111 206 m 200 486 b 621 67 200 256 389 67 b 1039 486 850 67 1039 256 b 621 906 1039 717 850 906 b 200 486 389 906 200 717 "},"④":{"ha":1239,"x_min":0,"x_max":0,"o":"m 668 385 l 372 385 l 372 449 b 517 736 471 500 517 622 l 601 736 b 508 463 601 654 568 535 l 668 463 l 668 736 l 750 736 l 750 463 l 813 463 l 813 385 l 750 385 l 750 250 l 668 250 m 111 486 b 621 994 111 767 339 994 b 1128 486 900 994 1128 767 b 621 -22 1128 206 900 -22 b 111 486 339 -22 111 206 m 200 486 b 621 67 200 256 389 67 b 1039 486 850 67 1039 256 b 621 906 1039 717 850 906 b 200 486 389 906 200 717 "},"⑤":{"ha":1239,"x_min":0,"x_max":0,"o":"m 619 236 b 436 383 511 236 436 293 l 519 397 b 619 314 519 363 549 314 b 721 413 689 314 721 357 b 619 511 721 468 689 511 b 522 457 551 511 528 472 l 443 457 l 467 736 l 767 736 l 767 658 l 542 658 l 533 558 b 619 586 554 576 585 586 b 803 413 724 586 803 524 b 619 236 803 301 724 236 m 111 486 b 621 994 111 767 339 994 b 1128 486 900 994 1128 767 b 621 -22 1128 206 900 -22 b 111 486 339 -22 111 206 m 200 486 b 621 67 200 256 389 67 b 1039 486 850 67 1039 256 b 621 906 1039 717 850 906 b 200 486 389 906 200 717 "},"⑥":{"ha":1239,"x_min":0,"x_max":0,"o":"m 624 239 b 426 496 467 239 426 382 b 624 747 426 676 513 747 b 814 610 707 747 786 704 l 729 596 b 624 669 713 633 679 669 b 506 521 557 669 517 625 b 624 574 533 558 574 574 b 804 407 721 574 804 518 b 624 239 804 296 721 239 m 111 486 b 621 994 111 767 339 994 b 1128 486 900 994 1128 767 b 621 -22 1128 206 900 -22 b 111 486 339 -22 111 206 m 200 486 b 621 67 200 256 389 67 b 1039 486 850 67 1039 256 b 621 906 1039 717 850 906 b 200 486 389 906 200 717 m 522 407 b 624 318 522 338 582 318 b 722 407 665 318 722 338 b 624 494 722 476 665 494 b 522 407 582 494 522 476 "},"⑦":{"ha":1239,"x_min":0,"x_max":0,"o":"m 544 250 b 681 658 542 454 607 586 l 439 658 l 439 736 l 800 736 l 800 658 b 629 250 715 613 626 489 l 544 250 m 111 486 b 621 994 111 767 339 994 b 1128 486 900 994 1128 767 b 621 -22 1128 206 900 -22 b 111 486 339 -22 111 206 m 200 486 b 621 67 200 256 389 67 b 1039 486 850 67 1039 256 b 621 906 1039 717 850 906 b 200 486 389 906 200 717 "},"⑧":{"ha":1239,"x_min":0,"x_max":0,"o":"m 619 239 b 426 392 524 239 426 294 b 504 510 426 450 454 490 b 444 607 469 533 444 572 b 619 747 444 689 508 747 b 796 607 731 747 796 689 b 735 507 796 568 771 531 b 814 392 786 486 814 442 b 619 239 814 294 715 239 m 111 486 b 621 994 111 767 339 994 b 1128 486 900 994 1128 767 b 621 -22 1128 206 900 -22 b 111 486 339 -22 111 206 m 200 486 b 621 67 200 256 389 67 b 1039 486 850 67 1039 256 b 621 906 1039 717 850 906 b 200 486 389 906 200 717 m 510 392 b 619 319 510 350 550 319 b 731 392 689 319 731 350 b 619 464 731 433 689 464 b 510 392 550 464 510 433 m 526 607 b 619 543 526 565 578 543 b 714 607 661 543 714 565 b 619 669 714 649 661 669 b 526 607 578 669 526 649 "},"⑨":{"ha":1239,"x_min":0,"x_max":0,"o":"m 617 239 b 426 376 533 239 454 282 l 511 390 b 617 317 528 353 561 317 b 735 465 683 317 724 361 b 617 413 707 428 667 413 b 436 579 519 413 436 468 b 617 747 436 690 519 747 b 814 490 774 747 814 604 b 617 239 814 310 728 239 m 111 486 b 621 994 111 767 339 994 b 1128 486 900 994 1128 767 b 621 -22 1128 206 900 -22 b 111 486 339 -22 111 206 m 200 486 b 621 67 200 256 389 67 b 1039 486 850 67 1039 256 b 621 906 1039 717 850 906 b 200 486 389 906 200 717 m 518 579 b 617 492 518 510 575 492 b 718 579 658 492 718 510 b 617 668 718 649 658 668 b 518 579 575 668 518 649 "},"⁄":{"ha":258,"x_min":0,"x_max":0,"o":"m 435 994 l 536 994 l -176 0 l -278 0 "},"½":{"ha":1133,"x_min":0,"x_max":0,"o":"m 731 72 b 999 333 792 118 999 240 b 904 419 999 389 956 419 b 810 307 849 419 801 388 l 729 318 b 904 497 724 422 796 497 b 1081 333 1008 497 1081 424 b 864 79 1081 231 951 135 l 1092 79 l 1092 0 l 731 0 l 731 72 m 97 565 l 222 565 l 222 796 b 131 756 201 769 169 756 l 97 756 l 97 833 l 131 833 b 222 972 197 833 222 844 l 304 972 l 304 565 l 429 565 l 429 486 l 97 486 m 906 994 l 1007 994 l 294 0 l 193 0 "},"⅓":{"ha":1143,"x_min":0,"x_max":0,"o":"m 911 -11 b 722 161 796 -11 706 63 l 806 171 b 911 69 796 94 854 69 b 1018 142 964 69 1018 88 b 911 213 1018 196 964 213 l 856 213 l 856 293 l 911 293 b 1001 357 968 293 1001 315 b 911 419 1001 399 968 419 b 822 353 846 419 822 388 l 739 363 b 911 497 733 424 793 497 b 1083 357 1022 497 1083 435 b 1031 253 1083 311 1063 275 b 1101 142 1076 233 1101 197 b 911 -11 1101 50 1022 -11 m 97 565 l 222 565 l 222 796 b 131 756 201 769 169 756 l 97 756 l 97 833 l 131 833 b 222 972 197 833 222 844 l 304 972 l 304 565 l 429 565 l 429 486 l 97 486 m 906 994 l 1007 994 l 294 0 l 193 0 "},"⅔":{"ha":1157,"x_min":0,"x_max":0,"o":"m 57 558 b 325 819 118 604 325 726 b 231 906 325 875 282 906 b 136 793 175 906 128 874 l 56 804 b 231 983 50 908 122 983 b 407 819 335 983 407 910 b 190 565 407 717 278 621 l 418 565 l 418 486 l 57 486 l 57 558 m 919 994 l 1021 994 l 308 0 l 207 0 m 806 171 b 911 69 796 94 854 69 b 1018 142 964 69 1018 88 b 911 213 1018 196 964 213 l 856 213 l 856 293 l 911 293 b 1001 357 968 293 1001 315 b 911 419 1001 399 968 419 b 822 353 846 419 822 388 l 739 363 b 911 497 733 424 793 497 b 1083 357 1022 497 1083 435 b 1031 253 1083 311 1063 275 b 1101 142 1076 233 1101 197 b 911 -11 1101 50 1022 -11 b 722 161 796 -11 706 63 "},"¼":{"ha":1147,"x_min":0,"x_max":0,"o":"m 665 199 b 810 486 764 250 810 372 l 894 486 b 801 213 894 404 863 285 l 961 213 l 961 486 l 1043 486 l 1043 213 l 1106 213 l 1106 135 l 1043 135 l 1043 0 l 961 0 l 961 135 l 665 135 l 665 199 m 97 565 l 222 565 l 222 796 b 131 756 201 769 169 756 l 97 756 l 97 833 l 131 833 b 222 972 197 833 222 844 l 304 972 l 304 565 l 429 565 l 429 486 l 97 486 m 892 994 l 993 994 l 281 0 l 179 0 "},"¾":{"ha":1133,"x_min":0,"x_max":0,"o":"m 246 475 b 57 647 131 475 40 549 l 140 657 b 246 556 131 581 189 556 b 353 628 299 556 353 574 b 246 699 353 682 299 699 l 190 699 l 190 779 l 246 779 b 336 843 303 779 336 801 b 246 906 336 885 303 906 b 157 839 181 906 157 874 l 74 849 b 246 983 68 910 128 983 b 418 843 357 983 418 921 b 365 739 418 797 397 761 b 436 628 411 719 436 683 b 246 475 436 536 357 475 m 879 994 l 981 994 l 268 0 l 167 0 m 638 199 b 782 486 736 250 782 372 l 867 486 b 774 213 867 404 835 285 l 933 213 l 933 486 l 1015 486 l 1015 213 l 1078 213 l 1078 135 l 1015 135 l 1015 0 l 933 0 l 933 135 l 638 135 "},"⅛":{"ha":1149,"x_min":0,"x_max":0,"o":"m 913 -11 b 719 142 817 -11 719 44 b 797 260 719 200 747 240 b 738 357 763 283 738 322 b 913 497 738 439 801 497 b 1089 357 1024 497 1089 439 b 1028 257 1089 318 1064 281 b 1107 142 1079 236 1107 192 b 913 -11 1107 44 1008 -11 m 97 565 l 222 565 l 222 796 b 131 756 201 769 169 756 l 97 756 l 97 833 l 131 833 b 222 972 197 833 222 844 l 304 972 l 304 565 l 429 565 l 429 486 l 97 486 m 906 994 l 1007 994 l 294 0 l 193 0 m 803 142 b 913 69 803 100 843 69 b 1024 142 982 69 1024 100 b 913 214 1024 183 982 214 b 803 142 843 214 803 183 m 819 357 b 913 293 819 315 871 293 b 1007 357 954 293 1007 315 b 913 419 1007 399 954 419 b 819 357 871 419 819 399 "},"⅜":{"ha":1135,"x_min":0,"x_max":0,"o":"m 885 -11 b 692 142 789 -11 692 44 b 769 260 692 200 719 240 b 710 357 735 283 710 322 b 885 497 710 439 774 497 b 1061 357 996 497 1061 439 b 1000 257 1061 318 1036 281 b 1079 142 1051 236 1079 192 b 885 -11 1079 44 981 -11 m 140 657 b 246 556 131 581 189 556 b 353 628 299 556 353 574 b 246 699 353 682 299 699 l 190 699 l 190 779 l 246 779 b 336 843 303 779 336 801 b 246 906 336 885 303 906 b 157 839 181 906 157 874 l 74 849 b 246 983 68 910 128 983 b 418 843 357 983 418 921 b 365 739 418 797 397 761 b 436 628 411 719 436 683 b 246 475 436 536 357 475 b 57 647 131 475 40 549 m 879 994 l 981 994 l 268 0 l 167 0 m 775 142 b 885 69 775 100 815 69 b 996 142 954 69 996 100 b 885 214 996 183 954 214 b 775 142 815 214 775 183 m 792 357 b 885 293 792 315 843 293 b 979 357 926 293 979 315 b 885 419 979 399 926 419 b 792 357 843 419 792 399 "},"⅝":{"ha":1121,"x_min":0,"x_max":0,"o":"m 239 472 b 56 619 131 472 56 529 l 139 633 b 239 550 139 599 168 550 b 340 649 308 550 340 593 b 239 747 340 704 308 747 b 142 693 171 747 147 708 l 63 693 l 86 972 l 386 972 l 386 894 l 161 894 l 153 794 b 239 822 174 813 204 822 b 422 649 343 822 422 760 b 239 472 422 538 343 472 m 865 994 l 967 994 l 254 0 l 153 0 m 678 142 b 756 260 678 200 706 240 b 696 357 721 283 696 322 b 871 497 696 439 760 497 b 1047 357 982 497 1047 439 b 986 257 1047 318 1022 281 b 1065 142 1038 236 1065 192 b 871 -11 1065 44 967 -11 b 678 142 775 -11 678 44 m 761 142 b 871 69 761 100 801 69 b 982 142 940 69 982 100 b 871 214 982 183 940 214 b 761 142 801 214 761 183 m 778 357 b 871 293 778 315 829 293 b 965 357 913 293 965 315 b 871 419 965 399 913 419 b 778 357 829 419 778 399 "},"⅞":{"ha":996,"x_min":0,"x_max":0,"o":"m 147 486 b 283 894 144 690 210 822 l 42 894 l 42 972 l 403 972 l 403 894 b 232 486 318 849 229 725 l 147 486 m 768 994 l 869 994 l 157 0 l 56 0 m 581 142 b 658 260 581 200 608 240 b 599 357 624 283 599 322 b 774 497 599 439 663 497 b 950 357 885 497 950 439 b 889 257 950 318 925 281 b 968 142 940 236 968 192 b 774 -11 968 44 869 -11 b 581 142 678 -11 581 44 m 664 142 b 774 69 664 100 704 69 b 885 142 843 69 885 100 b 774 214 885 183 843 214 b 664 142 704 214 664 183 m 681 357 b 774 293 681 315 732 293 b 868 357 815 293 868 315 b 774 419 868 399 815 419 b 681 357 732 419 681 399 "},".":{"ha":389,"x_min":0,"x_max":0,"o":"m 125 139 l 264 139 l 264 0 l 125 0 "},",":{"ha":389,"x_min":0,"x_max":0,"o":"m 97 -132 b 192 0 172 -132 192 -83 l 125 0 l 125 139 l 264 139 l 264 0 b 97 -192 264 -136 200 -192 l 97 -132 "},":":{"ha":361,"x_min":0,"x_max":0,"o":"m 97 139 l 236 139 l 236 0 l 97 0 m 97 639 l 236 639 l 236 500 l 97 500 "},";":{"ha":389,"x_min":0,"x_max":0,"o":"m 97 -132 b 192 0 172 -132 192 -83 l 125 0 l 125 139 l 264 139 l 264 0 b 97 -192 264 -136 200 -192 l 97 -132 m 125 639 l 264 639 l 264 500 l 125 500 "},"…":{"ha":1000,"x_min":0,"x_max":0,"o":"m 125 139 l 264 139 l 264 0 l 125 0 m 431 139 l 569 139 l 569 0 l 431 0 m 736 139 l 875 139 l 875 0 l 736 0 "},"!":{"ha":478,"x_min":0,"x_max":0,"o":"m 231 972 l 339 972 l 242 231 l 161 231 m 139 125 l 264 125 l 264 0 l 139 0 "},"¡":{"ha":478,"x_min":0,"x_max":0,"o":"m 236 500 l 317 500 l 247 -242 l 139 -242 m 214 731 l 339 731 l 339 606 l 214 606 "},"?":{"ha":757,"x_min":0,"x_max":0,"o":"m 294 500 b 579 697 503 500 579 586 b 378 893 579 808 503 893 b 171 660 253 893 171 813 l 69 674 b 378 994 69 854 183 994 b 688 697 572 994 688 878 b 396 417 688 517 531 431 l 396 231 l 294 231 l 294 500 m 283 125 l 408 125 l 408 0 l 283 0 "},"¿":{"ha":757,"x_min":0,"x_max":0,"o":"m 463 231 b 178 33 254 231 178 144 b 379 -162 178 -78 254 -162 b 586 71 504 -162 586 -82 l 688 57 b 379 -264 688 -124 574 -264 b 69 33 185 -264 69 -147 b 361 314 69 214 226 300 l 361 500 l 463 500 l 463 231 m 349 731 l 474 731 l 474 606 l 349 606 "},"·":{"ha":361,"x_min":0,"x_max":0,"o":"m 111 388 l 250 388 l 250 249 l 111 249 "},"•":{"ha":514,"x_min":0,"x_max":0,"o":"m 257 214 b 111 360 178 214 111 281 b 257 506 111 439 178 506 b 403 360 336 506 403 439 b 257 214 403 281 336 214 "},"*":{"ha":722,"x_min":0,"x_max":0,"o":"m 374 667 l 389 467 l 306 467 l 321 668 l 190 514 l 131 572 l 286 706 l 83 689 l 83 771 l 286 754 l 131 888 l 190 946 l 321 793 l 306 994 l 389 994 l 374 793 l 504 946 l 563 888 l 408 756 l 611 772 l 611 689 l 410 704 l 564 574 l 504 514 "},"#":{"ha":1021,"x_min":0,"x_max":0,"o":"m 586 253 l 306 253 l 224 0 l 122 0 l 204 253 l 56 253 l 56 347 l 236 347 l 318 600 l 139 600 l 139 694 l 349 694 l 447 994 l 549 994 l 450 694 l 731 694 l 829 994 l 931 994 l 832 694 l 965 694 l 965 600 l 801 600 l 719 347 l 882 347 l 882 253 l 688 253 l 606 0 l 504 0 m 618 347 l 700 600 l 419 600 l 338 347 "},"/":{"ha":683,"x_min":0,"x_max":0,"o":"m 506 994 l 614 994 l 178 -153 l 69 -153 "},"\\":{"ha":683,"x_min":0,"x_max":0,"o":"m 69 994 l 178 994 l 614 -153 l 506 -153 "},"-":{"ha":688,"x_min":0,"x_max":0,"o":"m 111 461 l 576 461 l 576 360 l 111 360 "},"–":{"ha":938,"x_min":0,"x_max":0,"o":"m 111 461 l 826 461 l 826 360 l 111 360 "},"—":{"ha":1215,"x_min":0,"x_max":0,"o":"m 111 461 l 1104 461 l 1104 360 l 111 360 "},"_":{"ha":465,"x_min":0,"x_max":0,"o":"m 0 -22 l 465 -22 l 465 -124 l 0 -124 "},"(":{"ha":465,"x_min":0,"x_max":0,"o":"m 329 -153 b 111 421 267 -83 111 129 b 329 994 111 713 267 925 l 438 994 b 219 421 375 925 219 713 b 438 -153 219 129 375 -83 l 329 -153 "},")":{"ha":465,"x_min":0,"x_max":0,"o":"m 28 -153 b 246 421 90 -83 246 129 b 28 994 246 713 90 925 l 136 994 b 354 421 199 925 354 713 b 136 -153 354 129 199 -83 l 28 -153 "},"{":{"ha":615,"x_min":0,"x_max":0,"o":"m 271 822 b 464 994 271 943 344 994 l 546 994 l 546 893 l 467 893 b 365 793 392 893 365 879 l 365 636 b 239 421 365 549 315 471 b 365 206 315 371 365 293 l 365 49 b 467 -51 365 -37 392 -51 l 546 -51 l 546 -153 l 464 -153 b 271 19 344 -153 271 -101 l 271 206 b 111 375 271 308 178 375 l 111 467 b 271 636 178 467 271 533 l 271 822 "},"}":{"ha":615,"x_min":0,"x_max":0,"o":"m 250 793 b 149 893 250 879 224 893 l 69 893 l 69 994 l 151 994 b 344 822 271 994 344 943 l 344 636 b 504 467 344 533 438 467 l 504 375 b 344 206 438 375 344 308 l 344 19 b 151 -153 344 -101 271 -153 l 69 -153 l 69 -51 l 149 -51 b 250 49 224 -51 250 -37 l 250 206 b 376 421 250 293 300 371 b 250 636 300 471 250 549 l 250 793 "},"[":{"ha":508,"x_min":0,"x_max":0,"o":"m 139 994 l 439 994 l 439 893 l 233 893 l 233 -50 l 439 -50 l 439 -153 l 139 -153 "},"]":{"ha":508,"x_min":0,"x_max":0,"o":"m 69 -50 l 275 -50 l 275 893 l 69 893 l 69 994 l 369 994 l 369 -153 l 69 -153 "},"‚":{"ha":389,"x_min":0,"x_max":0,"o":"m 97 -132 b 192 0 172 -132 192 -83 l 125 0 l 125 139 l 264 139 l 264 0 b 97 -192 264 -136 200 -192 l 97 -132 "},"„":{"ha":639,"x_min":0,"x_max":0,"o":"m 347 -132 b 442 0 422 -132 442 -83 l 375 0 l 375 139 l 514 139 l 514 0 b 347 -192 514 -136 450 -192 l 347 -132 m 97 -132 b 192 0 172 -132 192 -83 l 125 0 l 125 139 l 264 139 l 264 0 b 97 -192 264 -136 200 -192 "},"“":{"ha":611,"x_min":0,"x_max":0,"o":"m 542 925 b 447 793 467 925 447 876 l 514 793 l 514 654 l 375 654 l 375 793 b 542 985 375 929 439 985 l 542 925 m 125 793 b 292 985 125 929 189 985 l 292 925 b 197 793 217 925 197 876 l 264 793 l 264 654 l 125 654 "},"”":{"ha":611,"x_min":0,"x_max":0,"o":"m 319 714 b 414 846 394 714 414 763 l 347 846 l 347 985 l 486 985 l 486 846 b 319 654 486 710 422 654 l 319 714 m 69 714 b 164 846 144 714 164 763 l 97 846 l 97 985 l 236 985 l 236 846 b 69 654 236 710 172 654 "},"‘":{"ha":403,"x_min":0,"x_max":0,"o":"m 292 925 b 197 793 217 925 197 876 l 264 793 l 264 654 l 125 654 l 125 793 b 292 985 125 929 189 985 l 292 925 "},"’":{"ha":403,"x_min":0,"x_max":0,"o":"m 111 714 b 206 846 186 714 206 763 l 139 846 l 139 985 l 278 985 l 278 846 b 111 654 278 710 214 654 l 111 714 "},"«":{"ha":953,"x_min":0,"x_max":0,"o":"m 775 0 b 504 301 775 181 613 301 l 504 393 b 775 694 613 393 775 514 l 869 694 b 633 347 869 547 750 385 b 869 0 750 311 869 147 l 775 0 m 111 393 b 382 694 219 393 382 514 l 476 694 b 240 347 476 547 357 385 b 476 0 357 311 476 147 l 382 0 b 111 301 382 181 219 301 "},"»":{"ha":953,"x_min":0,"x_max":0,"o":"m 476 0 b 713 347 476 147 596 311 b 476 694 596 385 476 547 l 571 694 b 842 393 571 514 733 393 l 842 301 b 571 0 733 301 571 181 l 476 0 m 83 0 b 319 347 83 147 203 311 b 83 694 203 385 83 547 l 178 694 b 449 393 178 514 340 393 l 449 301 b 178 0 340 301 178 181 l 83 0 "},"‹":{"ha":560,"x_min":0,"x_max":0,"o":"m 382 0 b 111 301 382 181 219 301 l 111 393 b 382 694 219 393 382 514 l 476 694 b 240 347 476 547 357 385 b 476 0 357 311 476 147 l 382 0 "},"›":{"ha":560,"x_min":0,"x_max":0,"o":"m 83 0 b 319 347 83 147 203 311 b 83 694 203 385 83 547 l 178 694 b 449 393 178 514 340 393 l 449 301 b 178 0 340 301 178 181 l 83 0 "},"\"":{"ha":564,"x_min":0,"x_max":0,"o":"m 125 985 l 240 985 l 219 679 l 146 679 m 439 985 l 418 679 l 344 679 l 324 985 "},"'":{"ha":365,"x_min":0,"x_max":0,"o":"m 125 985 l 240 985 l 219 679 l 146 679 "},"ƒ":{"ha":608,"x_min":0,"x_max":0,"o":"m 14 -199 l 93 -199 b 194 -57 168 -199 182 -185 l 249 482 l 115 482 l 115 583 l 258 583 l 278 772 b 471 986 294 935 351 986 l 567 986 l 567 885 l 488 885 b 386 743 413 885 399 871 l 369 583 l 515 583 l 515 482 l 360 482 l 303 -86 b 110 -300 286 -249 229 -300 l 14 -300 "},"@":{"ha":1310,"x_min":0,"x_max":0,"o":"m 654 -143 b 125 388 363 -143 125 94 b 654 917 125 679 363 917 b 1185 388 947 917 1185 679 b 975 121 1185 207 1065 121 b 789 250 893 121 813 163 b 617 107 769 158 699 107 b 433 269 531 107 433 161 b 656 453 433 389 519 435 b 769 533 718 461 796 467 b 657 585 753 578 689 585 b 539 485 572 585 536 550 l 444 497 b 657 675 440 621 560 675 b 863 501 753 675 863 632 l 863 365 b 975 208 863 226 926 208 b 1097 386 1038 208 1097 261 b 656 829 1097 631 899 829 b 213 386 411 829 213 631 b 656 -56 213 143 411 -56 b 863 -4 731 -56 800 -37 l 1013 -18 b 654 -143 918 -104 792 -143 m 529 265 b 617 196 529 226 567 196 b 774 393 697 196 774 251 l 774 408 b 643 363 747 382 703 369 b 529 265 563 351 529 315 "},"&":{"ha":1001,"x_min":0,"x_max":0,"o":"m 425 -22 b 97 275 244 -22 97 94 b 285 533 97 408 183 479 b 206 767 236 610 206 690 b 460 994 206 919 319 994 b 703 767 594 994 703 919 b 435 501 703 621 565 561 b 672 261 501 418 588 335 b 721 563 707 346 721 453 l 822 549 b 754 192 822 451 810 310 b 1001 0 889 82 1001 6 l 838 0 b 701 106 838 4 781 43 b 425 -22 642 31 554 -22 m 206 275 b 425 79 206 150 300 79 b 621 171 511 79 575 114 b 339 454 526 250 421 349 b 206 275 263 413 206 360 m 314 767 b 381 578 314 708 339 643 b 594 767 493 628 594 672 b 460 893 594 850 529 893 b 314 767 390 893 314 850 "},"¶":{"ha":943,"x_min":0,"x_max":0,"o":"m 390 429 b 69 700 307 429 69 458 b 390 972 69 943 307 972 l 860 972 l 860 871 l 776 871 l 776 -97 l 668 -97 l 668 871 l 557 871 l 557 -97 l 449 -97 l 449 429 l 390 429 m 178 700 b 418 531 178 575 265 531 l 449 531 l 449 871 l 418 871 b 178 700 265 871 178 825 "},"§":{"ha":667,"x_min":0,"x_max":0,"o":"m 339 -117 b 83 128 186 -117 83 3 l 192 142 b 339 -15 192 44 256 -15 b 471 103 422 -15 471 47 b 69 478 471 269 69 228 b 167 617 69 554 119 596 b 88 775 119 651 88 700 b 328 994 88 886 175 994 b 583 750 481 994 583 875 l 475 736 b 328 893 475 833 411 893 b 196 775 244 893 196 831 b 597 400 196 608 597 650 b 500 261 597 324 547 282 b 579 103 547 226 579 178 b 339 -117 579 -8 492 -117 m 178 478 b 425 303 178 374 311 353 b 489 400 461 322 489 357 b 242 575 489 504 356 525 b 178 478 206 556 178 521 "},"©":{"ha":1267,"x_min":0,"x_max":0,"o":"m 638 211 b 393 486 517 211 393 299 b 638 761 393 674 517 761 b 874 557 749 761 856 692 l 778 544 b 638 668 763 604 724 668 b 489 486 538 668 489 592 b 638 304 489 381 538 304 b 778 425 724 304 764 360 l 874 413 b 638 211 856 278 749 211 m 125 486 b 635 994 125 767 353 994 b 1142 486 914 994 1142 767 b 635 -22 1142 206 914 -22 b 125 486 353 -22 125 206 m 214 486 b 635 67 214 256 403 67 b 1053 486 864 67 1053 256 b 635 906 1053 717 864 906 b 214 486 403 906 214 717 "},"®":{"ha":653,"x_min":0,"x_max":0,"o":"m 326 397 b 28 696 161 397 28 529 b 326 994 28 863 161 994 b 625 696 493 994 625 863 b 326 397 625 529 493 397 m 79 696 b 326 449 79 558 189 449 b 574 696 467 449 574 558 b 326 943 574 835 467 943 b 79 696 189 943 79 835 m 228 860 l 329 860 b 436 768 354 860 436 850 b 385 706 436 735 414 715 b 436 625 422 700 433 682 l 440 549 l 388 549 l 383 631 b 339 678 382 664 378 678 l 281 678 l 281 549 l 228 549 m 321 728 b 383 768 365 728 383 736 b 321 810 383 800 365 810 l 281 810 l 281 728 "},"℗":{"ha":653,"x_min":0,"x_max":0,"o":"m 326 397 b 28 696 161 397 28 529 b 326 994 28 863 161 994 b 625 696 493 994 625 863 b 326 397 625 529 493 397 m 79 696 b 326 449 79 558 189 449 b 574 696 467 449 574 558 b 326 943 574 835 467 943 b 79 696 189 943 79 835 m 249 860 l 350 860 b 456 768 375 860 456 850 b 350 678 456 688 375 678 l 300 678 l 300 549 l 249 549 m 342 728 b 404 768 386 728 404 736 b 342 810 404 800 386 810 l 300 810 l 300 728 "},"™":{"ha":1122,"x_min":0,"x_max":0,"o":"m 535 972 l 631 972 l 774 576 l 915 972 l 1011 972 l 1011 467 l 929 467 l 929 796 l 813 467 l 733 467 l 617 796 l 617 467 l 535 467 m 14 972 l 451 972 l 451 897 l 274 897 l 274 467 l 192 467 l 192 897 l 14 897 "},"°":{"ha":583,"x_min":0,"x_max":0,"o":"m 292 544 b 56 781 164 544 56 653 b 292 1017 56 908 164 1017 b 528 781 419 1017 528 908 b 292 544 528 653 419 544 m 157 781 b 292 646 157 708 219 646 b 426 781 364 646 426 708 b 292 915 426 853 364 915 b 157 781 219 915 157 853 "},"|":{"ha":379,"x_min":0,"x_max":0,"o":"m 139 1083 l 240 1083 l 240 -133 l 139 -133 "},"¦":{"ha":379,"x_min":0,"x_max":0,"o":"m 139 1083 l 240 1083 l 240 544 l 139 544 m 139 406 l 240 406 l 240 -133 l 139 -133 "},"†":{"ha":560,"x_min":0,"x_max":0,"o":"m 236 726 l 56 726 l 56 814 l 236 814 l 236 994 l 324 994 l 324 814 l 504 814 l 504 726 l 324 726 l 324 300 l 236 300 "},"ℓ":{"ha":924,"x_min":0,"x_max":0,"o":"m 704 224 b 474 -22 704 113 626 -22 b 225 235 329 -22 254 94 b 83 225 181 228 133 225 l 83 333 b 210 342 128 333 169 336 b 224 582 204 426 210 513 b 592 994 276 840 439 994 b 742 594 786 994 828 800 b 328 256 678 443 538 314 b 474 85 350 157 396 85 b 596 238 543 85 596 140 l 704 224 m 315 363 b 650 633 481 410 596 507 b 578 886 704 761 689 886 b 332 582 481 886 371 772 b 315 363 318 511 313 435 "},"‡":{"ha":560,"x_min":0,"x_max":0,"o":"m 236 481 l 56 481 l 56 568 l 236 568 l 236 726 l 56 726 l 56 814 l 236 814 l 236 994 l 324 994 l 324 814 l 504 814 l 504 726 l 324 726 l 324 568 l 504 568 l 504 481 l 324 481 l 324 300 l 236 300 "},"℮":{"ha":1294,"x_min":0,"x_max":0,"o":"m 647 -22 b 139 486 367 -22 139 206 b 647 994 139 767 367 994 b 1156 486 928 994 1157 767 l 1156 479 l 331 479 l 331 242 b 647 86 404 147 518 86 b 988 329 811 86 954 186 l 1103 329 b 647 -22 1065 125 874 -22 m 964 588 l 964 731 b 647 886 890 825 775 886 b 331 731 518 886 404 825 l 331 588 "},"№":{"ha":1672,"x_min":0,"x_max":0,"o":"m 125 972 l 275 972 l 786 93 l 786 972 l 894 972 l 894 0 l 731 0 l 233 856 l 233 0 l 125 0 m 1006 511 b 1304 810 1006 678 1139 810 b 1603 511 1471 810 1603 678 b 1304 213 1603 344 1471 213 b 1006 511 1139 213 1006 344 m 1071 101 l 1536 101 l 1536 0 l 1071 0 m 1107 511 b 1304 314 1107 401 1194 314 b 1501 511 1417 314 1501 401 b 1304 708 1501 622 1417 708 b 1107 511 1194 708 1107 622 "},"₿":{"ha":835,"x_min":0,"x_max":0,"o":"m 125 972 l 233 972 l 233 1083 l 321 1083 l 321 972 l 375 972 b 432 969 392 972 411 972 l 432 1083 l 519 1083 l 519 953 b 696 708 610 925 696 860 b 578 504 696 628 658 542 b 751 272 685 474 751 390 b 519 8 751 88 621 26 l 519 -111 l 432 -111 l 432 0 l 431 0 l 321 0 l 321 -111 l 233 -111 l 233 0 l 125 0 m 431 101 b 643 272 556 101 643 147 b 431 443 643 397 556 443 l 226 443 l 226 101 m 375 544 b 588 708 514 544 588 597 b 375 871 588 819 514 871 l 226 871 l 226 544 "},"¢":{"ha":786,"x_min":0,"x_max":0,"o":"m 368 106 b 83 469 218 124 83 242 b 368 839 83 697 218 819 l 368 1083 l 456 1083 l 456 840 b 717 565 597 826 688 743 l 608 551 b 456 736 589 646 549 719 l 456 207 b 608 385 549 224 589 289 l 717 371 b 456 104 688 196 597 118 l 456 -133 l 368 -133 m 192 469 b 368 208 192 344 246 229 l 368 736 b 192 469 246 714 192 594 "},"¤":{"ha":896,"x_min":0,"x_max":0,"o":"m 450 106 b 274 163 385 106 324 128 l 182 71 l 111 143 l 203 235 b 147 407 168 283 147 343 b 203 581 147 472 168 532 l 111 672 l 182 744 l 275 651 b 450 708 324 688 385 708 b 622 654 514 708 574 688 l 713 744 l 785 672 l 694 582 b 750 408 729 533 750 474 b 694 233 750 343 729 283 l 785 143 l 713 71 l 622 161 b 450 106 574 126 514 106 m 250 407 b 450 208 249 296 339 207 b 649 407 560 208 647 296 b 450 607 649 517 560 607 b 250 407 339 606 250 517 "},"$":{"ha":883,"x_min":0,"x_max":0,"o":"m 399 -18 b 97 369 221 4 97 132 l 206 383 b 399 85 206 204 281 107 l 399 488 b 144 747 208 546 144 621 b 399 992 144 874 244 975 l 399 1083 l 486 1083 l 486 993 b 742 706 643 976 742 872 l 633 692 b 486 889 633 800 575 872 l 486 565 b 786 265 694 506 786 425 b 486 -21 786 106 678 -11 l 486 -133 l 399 -133 m 253 747 b 399 590 253 665 303 622 l 399 890 b 253 747 313 878 253 831 m 486 81 b 678 265 608 90 678 161 b 486 464 678 382 604 429 l 486 81 "},"€":{"ha":1192,"x_min":0,"x_max":0,"o":"m 671 -22 b 239 339 483 -22 293 93 l 125 339 l 125 426 l 226 426 b 224 486 225 446 224 465 b 225 538 224 504 224 521 l 125 538 l 125 625 l 238 625 b 671 994 289 876 481 994 b 1094 608 865 994 1050 876 l 983 593 b 671 892 949 758 851 892 b 349 625 497 892 388 779 l 749 625 l 749 538 l 335 538 b 332 486 333 521 332 504 b 335 426 332 465 333 446 l 749 426 l 749 339 l 351 339 b 671 79 392 188 500 79 b 985 371 851 79 951 199 l 1094 357 b 671 -22 1051 89 865 -22 "},"₺":{"ha":947,"x_min":0,"x_max":0,"o":"m 246 383 l 83 339 l 83 426 l 246 471 l 246 582 l 83 538 l 83 625 l 246 669 l 246 972 l 354 972 l 354 699 l 693 792 l 693 704 l 354 611 l 354 500 l 693 593 l 693 506 l 354 413 l 354 101 l 569 101 b 790 321 692 101 790 200 l 892 307 b 569 0 892 131 747 0 l 246 0 "},"₽":{"ha":863,"x_min":0,"x_max":0,"o":"m 83 304 l 181 304 l 181 443 l 83 443 l 83 531 l 181 531 l 181 972 l 486 972 b 807 700 569 972 807 943 b 486 429 807 458 569 429 l 289 429 l 289 304 l 610 304 l 610 217 l 289 217 l 289 0 l 181 0 l 181 217 l 83 217 m 458 531 b 699 700 611 531 699 575 b 458 871 699 825 611 871 l 289 871 l 289 531 "},"₹":{"ha":863,"x_min":0,"x_max":0,"o":"m 111 429 l 111 531 l 264 531 b 503 669 404 531 489 568 l 111 669 l 111 757 l 497 757 b 264 871 472 839 390 871 l 111 871 l 111 972 l 779 972 l 779 885 l 542 885 b 608 757 574 854 597 813 l 779 757 l 779 669 l 611 669 b 292 429 592 456 371 429 l 240 429 l 574 0 l 444 0 "},"£":{"ha":947,"x_min":0,"x_max":0,"o":"m 111 101 b 240 413 265 219 267 301 l 28 413 l 28 514 l 215 514 b 190 713 201 569 190 635 b 514 994 190 874 306 994 b 836 688 692 994 836 864 l 735 674 b 514 893 735 794 636 893 b 299 714 393 893 299 817 b 329 514 299 643 314 576 l 638 514 l 638 413 l 354 413 b 244 101 378 299 376 199 l 808 101 l 808 0 l 111 0 l 111 101 "},"₩":{"ha":1217,"x_min":0,"x_max":0,"o":"m 221 297 l 83 297 l 83 385 l 200 385 l 165 524 l 83 524 l 83 611 l 144 611 l 56 972 l 164 972 l 253 611 l 482 611 l 561 972 l 656 972 l 735 611 l 964 611 l 1053 972 l 1161 972 l 1072 611 l 1133 611 l 1133 524 l 1051 524 l 1017 385 l 1133 385 l 1133 297 l 996 297 l 922 0 l 772 0 l 707 297 l 510 297 l 444 0 l 294 0 m 308 385 l 433 385 l 464 524 l 275 524 m 375 115 l 414 297 l 331 297 m 689 385 l 658 524 l 558 524 l 528 385 m 639 611 l 608 751 l 578 611 m 783 385 l 908 385 l 942 524 l 753 524 m 842 115 l 886 297 l 803 297 "},"¥":{"ha":900,"x_min":0,"x_max":0,"o":"m 396 190 l 146 190 l 146 278 l 396 278 l 396 417 l 146 417 l 146 504 l 356 504 l 42 972 l 164 972 l 450 551 l 736 972 l 858 972 l 544 504 l 756 504 l 756 417 l 504 417 l 504 278 l 756 278 l 756 190 l 504 190 l 504 0 l 396 0 "},"+":{"ha":832,"x_min":0,"x_max":0,"o":"m 365 360 l 111 360 l 111 461 l 365 461 l 365 717 l 467 717 l 467 461 l 721 461 l 721 360 l 467 360 l 467 107 l 365 107 "},"−":{"ha":832,"x_min":0,"x_max":0,"o":"m 111 461 l 721 461 l 721 360 l 111 360 "},"×":{"ha":765,"x_min":0,"x_max":0,"o":"m 113 213 l 311 411 l 111 611 l 183 682 l 382 482 l 583 683 l 654 611 l 453 411 l 653 211 l 582 140 l 382 340 l 183 142 "},"÷":{"ha":832,"x_min":0,"x_max":0,"o":"m 111 461 l 721 461 l 721 360 l 111 360 m 347 179 b 417 249 347 217 379 249 b 486 179 454 249 486 217 b 417 110 486 142 454 110 b 347 179 379 110 347 142 m 347 642 b 417 711 347 679 379 711 b 486 642 454 711 486 679 b 417 572 486 604 454 572 b 347 642 379 572 347 604 "},"=":{"ha":832,"x_min":0,"x_max":0,"o":"m 111 596 l 721 596 l 721 494 l 111 494 m 111 328 l 721 328 l 721 226 l 111 226 "},"≠":{"ha":832,"x_min":0,"x_max":0,"o":"m 283 199 l 111 199 l 111 300 l 322 300 l 407 522 l 111 522 l 111 624 l 446 624 l 515 804 l 611 804 l 543 624 l 721 624 l 721 522 l 504 522 l 419 300 l 721 300 l 721 199 l 381 199 l 317 31 l 219 31 "},">":{"ha":804,"x_min":0,"x_max":0,"o":"m 111 128 l 614 404 l 111 679 l 111 794 l 721 461 l 721 346 l 111 13 "},"<":{"ha":804,"x_min":0,"x_max":0,"o":"m 83 346 l 83 461 l 693 794 l 693 679 l 190 404 l 693 128 l 693 13 "},"≥":{"ha":818,"x_min":0,"x_max":0,"o":"m 111 346 l 574 525 l 111 703 l 111 818 l 721 582 l 721 467 l 111 231 m 111 100 l 721 100 l 721 -1 l 111 -1 "},"≤":{"ha":818,"x_min":0,"x_max":0,"o":"m 97 467 l 97 582 l 707 818 l 707 703 l 244 525 l 707 346 l 707 231 m 97 100 l 707 100 l 707 -1 l 97 -1 "},"±":{"ha":832,"x_min":0,"x_max":0,"o":"m 365 461 l 111 461 l 111 563 l 365 563 l 365 818 l 467 818 l 467 563 l 721 563 l 721 461 l 467 461 l 467 208 l 365 208 m 111 100 l 721 100 l 721 -1 l 111 -1 "},"≈":{"ha":832,"x_min":0,"x_max":0,"o":"m 111 600 b 278 656 125 614 167 656 b 554 572 389 656 443 572 b 721 628 665 572 707 614 l 721 526 b 554 471 707 513 665 471 b 278 554 443 471 389 554 b 111 499 167 554 125 513 l 111 600 m 111 276 b 278 332 125 290 167 332 b 554 249 389 332 443 249 b 721 304 665 249 707 290 l 721 203 b 554 147 707 189 665 147 b 278 231 443 147 389 231 b 111 175 167 231 125 189 "},"~":{"ha":669,"x_min":0,"x_max":0,"o":"m 83 326 b 221 492 83 424 133 492 b 435 414 318 492 379 414 b 485 506 490 414 485 478 l 586 492 b 449 326 586 394 532 326 b 235 404 351 326 290 404 b 185 313 189 404 185 340 l 83 326 "},"¬":{"ha":918,"x_min":0,"x_max":0,"o":"m 139 467 l 779 467 l 779 106 l 688 106 l 688 375 l 139 375 "},"^":{"ha":742,"x_min":0,"x_max":0,"o":"m 292 1014 l 450 1014 l 547 806 l 460 806 l 371 958 l 282 806 l 194 806 "},"∞":{"ha":1257,"x_min":0,"x_max":0,"o":"m 861 76 b 629 193 778 76 685 117 b 397 76 572 117 481 76 b 111 360 265 76 111 176 b 397 649 111 542 265 649 b 629 528 481 649 572 606 b 861 649 685 606 778 649 b 1146 360 992 649 1146 542 b 861 76 1146 176 992 76 m 219 360 b 397 178 219 272 276 178 b 575 360 518 178 575 272 b 397 547 575 436 518 547 b 219 360 276 547 219 436 m 683 360 b 861 178 683 272 740 178 b 1039 360 982 178 1039 272 b 861 547 1039 436 982 547 b 683 360 740 547 683 436 "},"∅":{"ha":1294,"x_min":0,"x_max":0,"o":"m 647 -22 b 338 83 531 -22 424 17 l 261 0 l 197 64 l 271 144 b 139 486 189 235 139 354 b 647 994 139 767 367 994 b 957 889 764 994 871 956 l 1033 972 l 1097 908 l 1024 828 b 1156 486 1106 738 1156 618 b 647 -22 1156 206 928 -22 m 247 486 b 344 224 247 386 285 294 l 883 808 b 647 886 817 857 735 886 b 247 486 426 886 247 707 m 411 163 b 647 86 478 115 558 86 b 1047 486 867 86 1047 265 b 950 747 1047 586 1010 678 l 411 163 "},"∫":{"ha":831,"x_min":0,"x_max":0,"o":"m 139 -199 l 218 -199 b 319 -57 293 -199 307 -185 l 403 772 b 596 986 419 935 476 986 l 692 986 l 692 885 l 613 885 b 511 743 538 885 524 871 l 428 -86 b 235 -300 411 -249 354 -300 l 139 -300 "},"∆":{"ha":1081,"x_min":0,"x_max":0,"o":"m 476 972 l 618 972 l 942 0 l 139 0 m 800 101 l 546 863 l 282 101 "},"∏":{"ha":981,"x_min":0,"x_max":0,"o":"m 733 871 l 247 871 l 247 -300 l 139 -300 l 139 972 l 842 972 l 842 -300 l 733 -300 "},"∑":{"ha":947,"x_min":0,"x_max":0,"o":"m 139 -199 l 513 336 l 139 871 l 139 972 l 808 972 l 808 871 l 258 871 l 632 336 l 258 -199 l 808 -199 l 808 -300 l 139 -300 "},"√":{"ha":904,"x_min":0,"x_max":0,"o":"m 206 319 l 69 319 l 69 414 l 289 414 l 439 -158 l 726 972 l 835 972 l 511 -300 l 369 -300 "},"µ":{"ha":832,"x_min":0,"x_max":0,"o":"m 356 -22 b 247 1 313 -22 276 -14 l 247 -278 l 139 -278 l 139 694 l 247 694 l 247 238 b 390 79 247 113 307 79 b 585 371 474 79 585 135 l 585 694 l 693 694 l 693 0 l 585 0 l 585 150 b 356 -22 563 54 483 -22 "},"∂":{"ha":950,"x_min":0,"x_max":0,"o":"m 474 -22 b 139 311 289 -22 139 128 b 474 646 139 496 289 646 b 701 514 579 646 660 593 b 390 900 660 767 522 900 l 390 994 b 811 356 626 994 811 731 b 474 -22 811 175 724 -22 m 247 314 b 474 79 247 186 346 79 b 704 314 601 79 704 186 b 474 544 704 442 601 544 b 247 314 346 544 247 442 "},"%":{"ha":1097,"x_min":0,"x_max":0,"o":"m 853 994 l 972 994 l 244 0 l 125 0 m 56 758 b 292 994 56 886 164 994 b 528 758 419 994 528 886 b 292 522 528 631 419 522 b 56 758 164 522 56 631 m 157 758 b 292 624 157 686 219 624 b 426 758 364 624 426 686 b 292 893 426 831 364 893 b 157 758 219 893 157 831 m 569 214 b 806 450 569 342 678 450 b 1042 214 933 450 1042 342 b 806 -22 1042 86 933 -22 b 569 214 678 -22 569 86 m 671 214 b 806 79 671 142 733 79 b 940 214 878 79 940 142 b 806 349 940 286 878 349 b 671 214 733 349 671 286 "},"‰":{"ha":1625,"x_min":0,"x_max":0,"o":"m 853 994 l 972 994 l 244 0 l 125 0 m 56 758 b 292 994 56 886 164 994 b 528 758 419 994 528 886 b 292 522 528 631 419 522 b 56 758 164 522 56 631 m 157 758 b 292 624 157 686 219 624 b 426 758 364 624 426 686 b 292 893 426 831 364 893 b 157 758 219 893 157 831 m 569 214 b 806 450 569 342 678 450 b 1042 214 933 450 1042 342 b 806 -22 1042 86 933 -22 b 569 214 678 -22 569 86 m 671 214 b 806 79 671 142 733 79 b 940 214 878 79 940 142 b 806 349 940 286 878 349 b 671 214 733 349 671 286 m 1097 214 b 1333 450 1097 342 1206 450 b 1569 214 1461 450 1569 342 b 1333 -22 1569 86 1461 -22 b 1097 214 1206 -22 1097 86 m 1199 214 b 1333 79 1199 142 1261 79 b 1468 214 1406 79 1468 142 b 1333 349 1468 286 1406 349 b 1199 214 1261 349 1199 286 "},"↑":{"ha":931,"x_min":0,"x_max":0,"o":"m 111 631 b 419 901 333 631 419 807 l 511 901 b 819 631 511 807 597 631 l 819 536 b 511 707 644 536 546 622 l 511 -47 l 419 -47 l 419 707 b 111 536 385 622 286 536 l 111 631 "},"↗":{"ha":985,"x_min":0,"x_max":0,"o":"m 111 124 l 644 656 b 306 753 561 621 431 629 l 374 821 b 782 793 531 663 715 726 l 847 729 b 874 319 781 663 717 476 l 807 253 b 710 592 683 376 675 508 l 176 58 "},"→":{"ha":1171,"x_min":0,"x_max":0,"o":"m 694 67 b 865 375 694 242 781 340 l 111 375 l 111 467 l 865 467 b 694 775 781 501 694 600 l 789 775 b 1060 467 789 553 965 467 l 1060 375 b 789 67 965 375 789 289 l 694 67 "},"↘":{"ha":985,"x_min":0,"x_max":0,"o":"m 306 89 b 644 186 431 213 561 221 l 111 718 l 176 783 l 710 250 b 807 589 675 333 683 465 l 874 522 b 847 113 717 365 781 179 l 782 49 b 374 21 715 115 531 179 l 306 89 "},"↓":{"ha":931,"x_min":0,"x_max":0,"o":"m 419 -61 b 111 210 419 33 333 210 l 111 304 b 419 133 286 304 385 218 l 419 888 l 511 888 l 511 133 b 819 304 546 218 644 304 l 819 210 b 511 -61 597 210 511 33 l 419 -61 "},"↙":{"ha":985,"x_min":0,"x_max":0,"o":"m 611 21 b 203 49 454 179 269 115 l 138 113 b 111 522 204 179 268 365 l 178 589 b 275 250 301 465 310 333 l 808 783 l 874 718 l 340 186 b 679 89 424 221 554 213 l 611 21 "},"←":{"ha":1171,"x_min":0,"x_max":0,"o":"m 382 67 b 111 375 382 289 206 375 l 111 467 b 382 775 206 467 382 553 l 476 775 b 306 467 476 600 390 501 l 1060 467 l 1060 375 l 306 375 b 476 67 390 340 476 242 l 382 67 "},"↖":{"ha":985,"x_min":0,"x_max":0,"o":"m 275 592 b 178 253 310 508 301 376 l 111 319 b 138 729 268 476 204 663 l 203 793 b 611 821 269 726 454 663 l 679 753 b 340 656 554 629 424 621 l 874 124 l 808 58 "},"↔":{"ha":1271,"x_min":0,"x_max":0,"o":"m 794 67 b 965 375 794 242 881 340 l 306 375 b 476 67 390 340 476 242 l 382 67 b 111 375 382 289 206 375 l 111 467 b 382 775 206 467 382 553 l 476 775 b 306 467 476 600 390 501 l 965 467 b 794 775 881 501 794 600 l 889 775 b 1160 467 889 553 1065 467 l 1160 375 b 889 67 1065 375 889 289 l 794 67 "},"↕":{"ha":931,"x_min":0,"x_max":0,"o":"m 111 267 b 419 96 286 267 385 181 l 419 756 b 111 585 385 671 286 585 l 111 679 b 419 950 333 679 419 856 l 511 950 b 819 679 511 856 597 679 l 819 585 b 511 756 644 585 546 671 l 511 96 b 819 267 546 181 644 267 l 819 172 b 511 -99 597 172 511 -4 l 419 -99 b 111 172 419 -4 333 172 l 111 267 "},"↩":{"ha":1478,"x_min":0,"x_max":0,"o":"m 382 67 b 111 375 382 289 206 375 l 111 467 b 382 775 206 467 382 553 l 476 775 b 306 467 476 600 390 501 l 1060 467 b 1275 681 1179 467 1275 563 b 1060 894 1275 799 1179 894 l 824 894 l 824 986 l 1060 986 b 1367 681 1231 986 1367 850 b 1060 375 1367 511 1231 375 l 306 375 b 476 67 390 340 476 242 l 382 67 "},"↪":{"ha":1478,"x_min":0,"x_max":0,"o":"m 1001 67 b 1172 375 1001 242 1088 340 l 418 375 b 111 681 247 375 111 511 b 418 986 111 850 247 986 l 654 986 l 654 894 l 418 894 b 203 681 299 894 203 799 b 418 467 203 563 299 467 l 1172 467 b 1001 775 1088 501 1001 600 l 1096 775 b 1367 467 1096 553 1272 467 l 1367 375 b 1096 67 1272 375 1096 289 l 1001 67 "},"↰":{"ha":1088,"x_min":0,"x_max":0,"o":"m 382 67 b 111 375 382 289 206 375 l 111 467 b 382 775 206 467 382 553 l 476 775 b 306 467 476 600 390 501 l 976 467 l 976 -131 l 885 -131 l 885 375 l 306 375 b 476 67 390 340 476 242 l 382 67 "},"↱":{"ha":1088,"x_min":0,"x_max":0,"o":"m 611 67 b 782 375 611 242 697 340 l 203 375 l 203 -131 l 111 -131 l 111 467 l 782 467 b 611 775 697 501 611 600 l 706 775 b 976 467 706 553 882 467 l 976 375 b 706 67 882 375 706 289 l 611 67 "},"↲":{"ha":1088,"x_min":0,"x_max":0,"o":"m 382 67 b 111 375 382 289 206 375 l 111 467 b 382 775 206 467 382 553 l 476 775 b 306 467 476 600 390 501 l 885 467 l 885 972 l 976 972 l 976 375 l 306 375 b 476 67 390 340 476 242 l 382 67 "},"↳":{"ha":1088,"x_min":0,"x_max":0,"o":"m 611 67 b 782 375 611 242 697 340 l 111 375 l 111 972 l 203 972 l 203 467 l 782 467 b 611 775 697 501 611 600 l 706 775 b 976 467 706 553 882 467 l 976 375 b 706 67 882 375 706 289 l 611 67 "},"●":{"ha":1239,"x_min":0,"x_max":0,"o":"m 621 -22 b 111 486 339 -22 111 206 b 621 994 111 767 339 994 b 1128 486 900 994 1128 767 b 621 -22 1128 206 900 -22 "},"○":{"ha":1239,"x_min":0,"x_max":0,"o":"m 621 -22 b 111 486 339 -22 111 206 b 621 994 111 767 339 994 b 1128 486 900 994 1128 767 b 621 -22 1128 206 900 -22 m 200 486 b 621 67 200 256 389 67 b 1039 486 850 67 1039 256 b 621 906 1039 717 850 906 b 200 486 389 906 200 717 "},"◊":{"ha":806,"x_min":0,"x_max":0,"o":"m 111 486 l 338 972 l 454 972 l 694 486 l 454 0 l 338 0 m 397 90 l 593 486 l 397 882 l 213 486 "},"̈":{"ha":0,"x_min":0,"x_max":0,"o":"m 414 931 l 539 931 l 539 806 l 414 806 m 194 931 l 319 931 l 319 806 l 194 806 "},"̇":{"ha":0,"x_min":0,"x_max":0,"o":"m 194 936 l 325 936 l 325 806 l 194 806 "},"̀":{"ha":0,"x_min":0,"x_max":0,"o":"m 194 1014 l 324 1014 l 407 806 l 319 806 "},"́":{"ha":0,"x_min":0,"x_max":0,"o":"m 278 1014 l 407 1014 l 282 806 l 194 806 "},"̋":{"ha":0,"x_min":0,"x_max":0,"o":"m 490 1014 l 619 1014 l 494 806 l 407 806 m 278 1014 l 407 1014 l 282 806 l 194 806 "},"̆":{"ha":0,"x_min":0,"x_max":0,"o":"m 403 806 b 194 1014 286 806 194 897 l 283 1014 b 403 894 285 947 338 894 b 522 1014 468 894 521 947 l 611 1014 b 403 806 611 897 518 806 "},"̊":{"ha":0,"x_min":0,"x_max":0,"o":"m 340 800 b 194 946 261 800 194 867 b 340 1092 194 1025 261 1092 b 486 946 419 1092 486 1025 b 340 800 486 867 419 800 m 285 946 b 340 890 285 914 308 890 b 396 946 372 890 396 914 b 340 1001 396 978 372 1001 b 285 946 308 1001 285 978 "},"̃":{"ha":0,"x_min":0,"x_max":0,"o":"m 194 819 b 332 971 194 903 244 971 b 490 893 415 971 449 893 b 540 971 546 893 540 957 l 642 957 b 504 806 642 874 588 806 b 346 883 421 806 388 883 b 296 806 300 883 296 819 l 194 819 "},"̄":{"ha":0,"x_min":0,"x_max":0,"o":"m 194 893 l 586 893 l 586 806 l 194 806 "},"̒":{"ha":0,"x_min":0,"x_max":0,"o":"m 194 906 b 347 1042 194 1014 244 1042 l 347 982 b 267 906 272 982 267 961 l 333 906 l 333 794 l 194 794 l 194 906 "},"̦":{"ha":0,"x_min":0,"x_max":0,"o":"m 194 -285 b 275 -208 269 -285 275 -264 l 208 -208 l 208 -97 l 347 -97 l 347 -208 b 194 -344 347 -317 297 -344 l 194 -285 "},"̧":{"ha":0,"x_min":0,"x_max":0,"o":"m 318 -300 b 194 -201 256 -300 201 -262 l 274 -187 b 318 -224 278 -210 294 -224 b 365 -176 346 -224 365 -204 b 318 -131 365 -149 346 -131 b 278 -154 299 -131 285 -139 l 207 -122 l 275 76 l 358 76 l 313 -53 l 318 -53 b 442 -176 385 -53 442 -110 b 318 -300 442 -243 385 -300 "},"̨":{"ha":0,"x_min":0,"x_max":0,"o":"m 318 -247 b 194 -124 238 -247 194 -190 b 276 0 194 -71 224 -28 l 364 0 b 285 -107 314 -28 285 -68 b 328 -157 285 -137 307 -157 b 376 -107 349 -157 376 -149 l 456 -121 b 318 -247 456 -204 394 -247 "},"¨":{"ha":733,"x_min":0,"x_max":0,"o":"m 414 931 l 539 931 l 539 806 l 414 806 m 194 931 l 319 931 l 319 806 l 194 806 "},"`":{"ha":601,"x_min":0,"x_max":0,"o":"m 194 1014 l 324 1014 l 407 806 l 319 806 "},"´":{"ha":601,"x_min":0,"x_max":0,"o":"m 278 1014 l 407 1014 l 282 806 l 194 806 "},"˝":{"ha":814,"x_min":0,"x_max":0,"o":"m 490 1014 l 619 1014 l 494 806 l 407 806 m 278 1014 l 407 1014 l 282 806 l 194 806 "},"ˆ":{"ha":742,"x_min":0,"x_max":0,"o":"m 292 1014 l 450 1014 l 547 806 l 460 806 l 371 958 l 282 806 l 194 806 "},"ˇ":{"ha":742,"x_min":0,"x_max":0,"o":"m 194 1014 l 282 1014 l 371 861 l 460 1014 l 547 1014 l 450 806 l 292 806 "},"˘":{"ha":806,"x_min":0,"x_max":0,"o":"m 403 806 b 194 1014 286 806 194 897 l 283 1014 b 403 894 285 947 338 894 b 522 1014 468 894 521 947 l 611 1014 b 403 806 611 897 518 806 "},"˚":{"ha":681,"x_min":0,"x_max":0,"o":"m 340 800 b 194 946 261 800 194 867 b 340 1092 194 1025 261 1092 b 486 946 419 1092 486 1025 b 340 800 486 867 419 800 m 285 946 b 340 890 285 914 308 890 b 396 946 372 890 396 914 b 340 1001 396 978 372 1001 b 285 946 308 1001 285 978 "},"˜":{"ha":836,"x_min":0,"x_max":0,"o":"m 194 819 b 332 971 194 903 244 971 b 490 893 415 971 449 893 b 540 971 546 893 540 957 l 642 957 b 504 806 642 874 588 806 b 346 883 421 806 388 883 b 296 806 300 883 296 819 l 194 819 "},"¯":{"ha":781,"x_min":0,"x_max":0,"o":"m 194 893 l 586 893 l 586 806 l 194 806 "},"¸":{"ha":636,"x_min":0,"x_max":0,"o":"m 318 -300 b 194 -201 256 -300 201 -262 l 274 -187 b 318 -224 278 -210 294 -224 b 365 -176 346 -224 365 -204 b 318 -131 365 -149 346 -131 b 278 -154 299 -131 285 -139 l 207 -122 l 275 76 l 358 76 l 313 -53 l 318 -53 b 442 -176 385 -53 442 -110 b 318 -300 442 -243 385 -300 "},"˛":{"ha":650,"x_min":0,"x_max":0,"o":"m 318 -247 b 194 -124 238 -247 194 -190 b 276 0 194 -71 224 -28 l 364 0 b 285 -107 314 -28 285 -68 b 328 -157 285 -137 307 -157 b 376 -107 349 -157 376 -149 l 456 -121 b 318 -247 456 -204 394 -247 "},"ʼ":{"ha":601,"x_min":0,"x_max":0,"o":"m 278 1014 l 407 1014 l 282 806 l 194 806 "}}}
